<svg id="Calque_1" data-name="Calque 1" xmlns="http://www.w3.org/2000/svg" viewBox="0 0 418.58 422.06"><defs><style>.cls-1{fill:#c5cfff;}.cls-2,.cls-3,.cls-5,.cls-6{fill:none;stroke:#203dfc;stroke-width:10px;}.cls-2,.cls-3{stroke-miterlimit:10;}.cls-3,.cls-6{stroke-linecap:round;}.cls-4{fill:#203dfc;}.cls-5,.cls-6{stroke-linejoin:round;}</style></defs><rect class="cls-1" x="116.37" y="155.5" width="40.76" height="62.72"/><path class="cls-1" d="M331.57,267.51h63a24,24,0,0,1,24,24v75.07a55.5,55.5,0,0,1-55.5,55.5h0a55.5,55.5,0,0,1-55.5-55.5V291.5A24,24,0,0,1,331.57,267.51Z"/><path class="cls-2" d="M326.88,483.18v29.5A54.34,54.34,0,0,0,381.22,567h9.54a54.34,54.34,0,0,0,54.34-54.34V421.84a54.35,54.35,0,0,1,54.35-54.35h0a54.35,54.35,0,0,1,54.34,54.35v34.88" transform="translate(-190.71 -188.97)"/><path class="cls-3" d="M553.56,482.24v22.48" transform="translate(-190.71 -188.97)"/><path class="cls-4" d="M97.12,249.78h79.62a0,0,0,0,1,0,0v4.68a39.81,39.81,0,0,1-39.81,39.81h0a39.81,39.81,0,0,1-39.81-39.81v-4.68A0,0,0,0,1,97.12,249.78Z"/><path class="cls-5" d="M410.3,325.81a82.66,82.66,0,1,0-130.66,67.28v41.32h96V393.09A82.54,82.54,0,0,0,410.3,325.81Z" transform="translate(-190.71 -188.97)"/><path class="cls-2" d="M278.66,410.12h98" transform="translate(-190.71 -188.97)"/><path class="cls-2" d="M327.64,341.87v65.31" transform="translate(-190.71 -188.97)"/><path class="cls-5" d="M349.94,341.87c-7.43-12.53-14.87-23.05-22.3-35.58,0,0-22.33,35.58-22.34,35.58v68.25H350Z" transform="translate(-190.71 -188.97)"/><path class="cls-2" d="M305.3,341.87l42.54.36" transform="translate(-190.71 -188.97)"/><rect class="cls-4" x="132.23" y="116.75" width="9.41" height="15.86"/><path class="cls-6" d="M328.49,194v28.5" transform="translate(-190.71 -188.97)"/><path class="cls-6" d="M224.21,321.58h-28.5" transform="translate(-190.71 -188.97)"/><path class="cls-6" d="M255.8,250.55l-20.47-20.47" transform="translate(-190.71 -188.97)"/><path class="cls-6" d="M433,321.58h28.5" transform="translate(-190.71 -188.97)"/><path class="cls-6" d="M401.4,250.55l20.47-20.47" transform="translate(-190.71 -188.97)"/></svg>