<svg id="Calque_1" data-name="Calque 1" xmlns="http://www.w3.org/2000/svg" viewBox="0 0 366.53 435.31"><defs><style>.cls-1{fill:#2443ff;}.cls-2{fill:#ffb8ac;}.cls-3{fill:#223ffa;opacity:0.1;}.cls-4{fill:#ffd4cc;}.cls-5{fill:#c5cfff;}</style></defs><rect class="cls-1" x="-7.69" y="73.06" width="216.68" height="2" transform="matrix(0.87, -0.49, 0.49, 0.87, -23.39, 58.91)"/><path class="cls-1" d="M260.81,430.5a15.78,15.78,0,0,1-8.64-3c-.71-.47-20.69-12.21-46-27.08C150.52,367.72,66.4,318.26,61,314.61c-3.06-2.07-4.77-4.39-5.09-6.88a6.78,6.78,0,0,1,1.43-5l15.92-15.29L77.13,289,196.06,173.78l-2.67-2.36.73-.75s2.55-2.62,7.59-7.48c4.68-4.51,11.69-.42,12.49.08,3.45,1.55,129.74,58.27,143,64.45,5.91,2.75,9,5.6,9.28,8.46a4.59,4.59,0,0,1-1.65,3.82l-21.35,42.07c-2.89,5.61-70.71,137.31-74.47,143.57a9.38,9.38,0,0,1-6.11,4.64A9.84,9.84,0,0,1,260.81,430.5Zm-202-126.4a4.8,4.8,0,0,0-.88,3.41c.25,1.88,1.68,3.72,4.22,5.45,5.32,3.61,89.41,53.05,145,85.76,29.88,17.57,45.5,26.75,46.09,27.15,3.17,2.15,6.52,3.05,9.2,2.46a7.45,7.45,0,0,0,4.83-3.72c3.73-6.21,73.7-142.08,74.41-143.45l21.56-42.48.2-.15a2.59,2.59,0,0,0,1-2.19c-.12-1.18-1.32-3.64-8.13-6.81-13.4-6.23-141.78-63.88-143.07-64.46l-.13-.07c-.06,0-6.36-4-10.09-.37-3.46,3.34-5.73,5.6-6.81,6.68l2.71,2.4L77.59,291.3l-3.84-1.54L58.81,304.1Z"/><path class="cls-2" d="M121.78,308.83l6.87-8a.89.89,0,0,0-.18-1.33l-10-6.81a.9.9,0,0,0-1.15.11L109.3,301a.91.91,0,0,0,.18,1.41L120.64,309A.88.88,0,0,0,121.78,308.83Z"/><path class="cls-2" d="M120,291.48l9.84,6.81a.89.89,0,0,0,1.15-.13l7.08-7.8a.87.87,0,0,0-.13-1.3l-9.45-6.87a.89.89,0,0,0-1.16.1l-7.47,7.86A.88.88,0,0,0,120,291.48Z"/><path class="cls-2" d="M139.05,288.13l-9.37-6.8a.9.9,0,0,1-.12-1.35l6.76-7.1a.9.9,0,0,1,1.16-.13l9.37,6.46a.89.89,0,0,1,.16,1.34L140.24,288A.91.91,0,0,1,139.05,288.13Z"/><path class="cls-2" d="M138.8,271.75l9.16,6.58a.91.91,0,0,0,1.19-.13l6.09-6.7a.9.9,0,0,0-.2-1.37l-9.57-5.84a.91.91,0,0,0-1.12.14l-5.68,6A.88.88,0,0,0,138.8,271.75Z"/><path class="cls-2" d="M147.09,263.12l9.48,5.83a.91.91,0,0,0,1.13-.16l5.43-6a.9.9,0,0,0-.2-1.37l-9.35-5.69a.9.9,0,0,0-1.11.15l-5.56,5.84A.89.89,0,0,0,147.09,263.12Z"/><path class="cls-2" d="M155.18,254.64l9.33,5.59a.89.89,0,0,0,1.12-.17l5.9-6.49a.89.89,0,0,0-.2-1.37l-9.16-5.47a.9.9,0,0,0-1.11.15L155,253.26A.89.89,0,0,0,155.18,254.64Z"/><path class="cls-2" d="M163.55,245.84l9.08,5.45a.9.9,0,0,0,1.13-.17l5.35-5.88a.89.89,0,0,0-.21-1.37L170,238.53a.91.91,0,0,0-1.11.15l-5.5,5.78A.89.89,0,0,0,163.55,245.84Z"/><path class="cls-2" d="M171.38,237.62l8.89,5.27a.89.89,0,0,0,1.12-.17l4.75-5.23a.89.89,0,0,0-.18-1.36l-8.55-5.39a.88.88,0,0,0-1.12.14l-5.1,5.35A.91.91,0,0,0,171.38,237.62Z"/><path class="cls-2" d="M178.77,229.81l8.39,5.45a.9.9,0,0,0,1.15-.15l4.89-5.38a.9.9,0,0,0-.18-1.36l-8.32-5.28a.89.89,0,0,0-1.13.14l-5,5.21A.9.9,0,0,0,178.77,229.81Z"/><path class="cls-2" d="M194.41,227.28l-8.36-5a.93.93,0,0,1-.19-1.44l4.95-5.21a.94.94,0,0,1,1.15-.16l8.26,4.88a.93.93,0,0,1,.22,1.43l-4.86,5.35A.93.93,0,0,1,194.41,227.28Z"/><path class="cls-2" d="M193.32,214.66l8.28,4.74a.93.93,0,0,0,1.15-.19l4.31-4.73a.93.93,0,0,0-.22-1.43l-8.06-4.76a.93.93,0,0,0-1.15.17l-4.52,4.75A.93.93,0,0,0,193.32,214.66Z"/><path class="cls-2" d="M208.17,212.14l-7.94-4.77a.93.93,0,0,1-.19-1.44l4.07-4.28a.93.93,0,0,1,1.13-.17l8,4.48a.93.93,0,0,1,.24,1.44L209.34,212A.93.93,0,0,1,208.17,212.14Z"/><path class="cls-2" d="M214.49,205.18l-7.75-4.65a.94.94,0,0,1-.19-1.45l3.68-3.86a.93.93,0,0,1,1.12-.18l7.89,4.32a.93.93,0,0,1,.25,1.44L215.66,205A.93.93,0,0,1,214.49,205.18Z"/><path class="cls-2" d="M229.31,207l-7.09-3.72a.93.93,0,0,1-.26-1.45l4-4.43a.94.94,0,0,1,1.13-.19l6.89,3.69a.94.94,0,0,1,.27,1.43l-3.81,4.45A.93.93,0,0,1,229.31,207Z"/><path class="cls-2" d="M223.2,214.13l-7-3.92a.93.93,0,0,1-.25-1.43l3.89-4.5a.93.93,0,0,1,1.15-.21l7.06,3.86a.94.94,0,0,1,.26,1.43l-3.9,4.56A1,1,0,0,1,223.2,214.13Z"/><path class="cls-2" d="M217.06,221.3l-7.4-4.09a.92.92,0,0,1-.22-1.46l4.34-4.46a.93.93,0,0,1,1.12-.17l7,3.92a.93.93,0,0,1,.26,1.42l-4,4.63A1,1,0,0,1,217.06,221.3Z"/><path class="cls-2" d="M210.59,228.87l-7.81-4.1a.93.93,0,0,1-.26-1.45l4.51-5a.93.93,0,0,1,1.13-.2l7.59,4.07a.93.93,0,0,1,.27,1.43l-4.29,5A.92.92,0,0,1,210.59,228.87Z"/><path class="cls-2" d="M203.89,236.72l-8.2-4.09a.93.93,0,0,1-.28-1.46l4.78-5.27a.93.93,0,0,1,1.13-.2l7.83,4.23a.94.94,0,0,1,.26,1.43L205,236.49A.93.93,0,0,1,203.89,236.72Z"/><path class="cls-2" d="M196.63,245.17l-8.18-4.67a.91.91,0,0,1-.22-1.4l4.78-5.28a.91.91,0,0,1,1.08-.2l8.41,4.25a.9.9,0,0,1,.27,1.4l-5,5.71A.92.92,0,0,1,196.63,245.17Z"/><path class="cls-2" d="M189.41,253.58,181,248.76a.9.9,0,0,1-.22-1.39l5.38-5.94a.9.9,0,0,1,1.14-.16l8.09,4.88a.91.91,0,0,1,.22,1.37l-5,5.86A.91.91,0,0,1,189.41,253.58Z"/><path class="cls-2" d="M182,262.16l-8.6-5.12a.9.9,0,0,1-.2-1.39l5.3-5.85a.9.9,0,0,1,1.14-.17l8.39,5a.91.91,0,0,1,.23,1.37l-5.11,6A.91.91,0,0,1,182,262.16Z"/><path class="cls-2" d="M173.92,271.9,165,266.34a.91.91,0,0,1-.19-1.38l6.18-6.83a.93.93,0,0,1,1.16-.16l8.51,5.39a.91.91,0,0,1,.22,1.34l-5.78,7A.91.91,0,0,1,173.92,271.9Z"/><path class="cls-2" d="M166,280.86l-9.08-5.55a.9.9,0,0,1-.17-1.4l5.92-6.1a.89.89,0,0,1,1.11-.14l8.7,5.16a.91.91,0,0,1,.22,1.37l-5.54,6.47A.91.91,0,0,1,166,280.86Z"/><path class="cls-2" d="M157.65,290.61l-9.41-5.76a.9.9,0,0,1-.19-1.38l6.2-6.86a.91.91,0,0,1,1.15-.16l9.2,5.61a.9.9,0,0,1,.22,1.36l-6,7A.91.91,0,0,1,157.65,290.61Z"/><path class="cls-2" d="M148.71,301.05l-9.8-5.88a.9.9,0,0,1-.21-1.38l7-7.67a.89.89,0,0,1,1.14-.17l9.51,5.8a.91.91,0,0,1,.21,1.36l-6.64,7.76A.92.92,0,0,1,148.71,301.05Z"/><path class="cls-2" d="M163.55,307.58l-10-6.42a.94.94,0,0,0-1.23.18l-13.89,16.45a1,1,0,0,0,.22,1.41l10.09,6.36a.94.94,0,0,0,1.23-.19L163.76,309A1,1,0,0,0,163.55,307.58Z"/><path class="cls-2" d="M165.09,306.13l-10.15-6.22a.94.94,0,0,1-.23-1.42l6.07-7.1a1,1,0,0,1,1.23-.19l10,6.25a1,1,0,0,1,.22,1.41l-5.89,7.07A1,1,0,0,1,165.09,306.13Z"/><path class="cls-2" d="M173.43,296.16l-10.17-6a1,1,0,0,1-.24-1.44l6.37-7.44a.94.94,0,0,1,1.2-.2l10,5.95a.94.94,0,0,1,.25,1.42L174.64,296A1,1,0,0,1,173.43,296.16Z"/><path class="cls-2" d="M172.08,279.9l10.06,5.82a1,1,0,0,0,1.21-.22l5.31-6.38a.94.94,0,0,0-.24-1.42l-9.87-5.88a.94.94,0,0,0-1.2.2l-5.52,6.45A1,1,0,0,0,172.08,279.9Z"/><path class="cls-2" d="M189.87,276.43,180,270.61a.94.94,0,0,1-.24-1.43l5.61-6.56a1,1,0,0,1,1.2-.21l9.81,5.7a1,1,0,0,1,.25,1.43l-5.57,6.68A1,1,0,0,1,189.87,276.43Z"/><path class="cls-2" d="M197.82,266.91l-9.83-5.6a.94.94,0,0,1-.25-1.44l5-5.83a1,1,0,0,1,1.15-.22L204,259a1,1,0,0,1,.3,1.45L199,266.69A.94.94,0,0,1,197.82,266.91Z"/><path class="cls-2" d="M205.48,257.81l-10.11-5.05a.94.94,0,0,1-.3-1.46l4.8-5.62a1,1,0,0,1,1.17-.22l9.82,5.24a1,1,0,0,1,.29,1.45l-4.52,5.42A1,1,0,0,1,205.48,257.81Z"/><path class="cls-2" d="M212.31,249.51l-9.72-5.13a1,1,0,0,1-.29-1.53l4.44-5.2a1,1,0,0,1,1.22-.24l9.71,5A1,1,0,0,1,218,244l-4.43,5.32A1,1,0,0,1,212.31,249.51Z"/><path class="cls-2" d="M209.37,236.44l9.58,5.1a1,1,0,0,0,1.23-.24l4.4-5.27a1,1,0,0,0-.31-1.53l-9.62-4.92a1,1,0,0,0-1.21.24l-4.36,5.09A1,1,0,0,0,209.37,236.44Z"/><path class="cls-2" d="M225.7,233.46l-9.54-4.94a1,1,0,0,1-.3-1.54l4.19-4.9a1,1,0,0,1,1.24-.23l9.32,5.08a1,1,0,0,1,.29,1.51l-4,4.77A1,1,0,0,1,225.7,233.46Z"/><path class="cls-2" d="M231.77,226.14l-9.25-5.1a1,1,0,0,1-.28-1.52l4.2-4.91a1,1,0,0,1,1.24-.23l9.19,5a1,1,0,0,1,.29,1.52l-4.14,5A1,1,0,0,1,231.77,226.14Z"/><path class="cls-2" d="M238.12,218.53l-9.21-4.95a1,1,0,0,1-.28-1.53l3.49-4.07a1,1,0,0,1,1.22-.24l9.19,4.87a1,1,0,0,1,.3,1.52l-3.47,4.16A1,1,0,0,1,238.12,218.53Z"/><path class="cls-2" d="M243.83,211.7l-9.2-4.79a1,1,0,0,1-.29-1.53l3.58-4.19a1,1,0,0,1,1.2-.25l9.27,4.6a1,1,0,0,1,.32,1.53l-3.65,4.39A1,1,0,0,1,243.83,211.7Z"/><path class="cls-2" d="M238.58,224.05l8.77,4.35a1,1,0,0,0,1.23-.27l3.77-4.79a1,1,0,0,0-.28-1.48l-8.24-4.81a1,1,0,0,0-1.28.23l-4.29,5.24A1,1,0,0,0,238.58,224.05Z"/><path class="cls-2" d="M241.36,236l-8.86-4.54a1,1,0,0,1-.31-1.52l3.95-4.82a1,1,0,0,1,1.22-.25l8.75,4.48a1,1,0,0,1,.33,1.5l-3.84,4.88A1,1,0,0,1,241.36,236Z"/><path class="cls-2" d="M235,244.05l-8.79-4.93a1,1,0,0,1-.29-1.5l4.14-5.05a1,1,0,0,1,1.25-.25l8.81,4.69a1,1,0,0,1,.32,1.5l-4.17,5.29A1,1,0,0,1,235,244.05Z"/><path class="cls-2" d="M228.46,252.28l-8.88-5.15a1,1,0,0,1-.27-1.49l4.09-5a1,1,0,0,1,1.23-.25l9,4.77a1,1,0,0,1,.32,1.49L229.74,252A1,1,0,0,1,228.46,252.28Z"/><path class="cls-2" d="M222.06,260.45l-9.26-5a1,1,0,0,1-.3-1.51l4.45-5.43a1,1,0,0,1,1.27-.23l8.91,5.23a1,1,0,0,1,.28,1.48l-4.09,5.19A1,1,0,0,1,222.06,260.45Z"/><path class="cls-2" d="M215,269.46l-9.45-5.28a1,1,0,0,1-.27-1.43l4.92-6a.94.94,0,0,1,1.17-.24l9.5,5a.94.94,0,0,1,.31,1.42l-5,6.3A1,1,0,0,1,215,269.46Z"/><path class="cls-2" d="M197.82,273.62l9.73,5.31a1,1,0,0,0,1.2-.24l5.23-6.64a1,1,0,0,0-.28-1.42l-9.46-5.36a1,1,0,0,0-1.21.22l-5.48,6.69A1,1,0,0,0,197.82,273.62Z"/><path class="cls-2" d="M199.88,288.67l-10-5.4a1,1,0,0,1-.28-1.43l5.85-7.13a.94.94,0,0,1,1.21-.22l9.6,5.57a1,1,0,0,1,.27,1.41l-5.48,7A1,1,0,0,1,199.88,288.67Z"/><path class="cls-2" d="M182.11,292.71l9.77,6a1,1,0,0,0,1.24-.22l5.69-7.22a1,1,0,0,0-.27-1.41l-9.86-5.64a1,1,0,0,0-1.21.22l-5.6,6.83A1,1,0,0,0,182.11,292.71Z"/><path class="cls-2" d="M183.8,309l-10-6.18a1,1,0,0,1-.24-1.41l5.87-7.16a1,1,0,0,1,1.23-.21l9.88,6a1,1,0,0,1,.25,1.4L185,308.77A.93.93,0,0,1,183.8,309Z"/><path class="cls-2" d="M164.93,313.63,175,320.12a.94.94,0,0,0,1.26-.21l6.41-8.13a1,1,0,0,0-.24-1.39l-9.93-6.34a1,1,0,0,0-1.25.2l-6.55,8A.94.94,0,0,0,164.93,313.63Z"/><path class="cls-2" d="M173.65,321.49,163.52,315a.94.94,0,0,0-1.24.2l-9.38,11.3a1,1,0,0,0,.23,1.42l10.2,6.2a.94.94,0,0,0,1.21-.2l9.33-11A.94.94,0,0,0,173.65,321.49Z"/><path class="cls-2" d="M186.59,333l-10.94-6.78a1,1,0,0,0-1.21.19l-7.16,8.24a1,1,0,0,0,.23,1.43l11.42,6.85a.93.93,0,0,0,1.22-.22l6.68-8.31A.94.94,0,0,0,186.59,333Z"/><path class="cls-2" d="M188,331.5,176.92,325a1,1,0,0,1-.27-1.4l6.56-8.43a.94.94,0,0,1,1.23-.22l10.8,6.54a.94.94,0,0,1,.26,1.38l-6.26,8.34A.94.94,0,0,1,188,331.5Z"/><path class="cls-2" d="M196.52,320.17l-10.88-6.34a1,1,0,0,1-.27-1.4l6.36-8.16a.94.94,0,0,1,1.24-.22l10.49,6.56a.94.94,0,0,1,.25,1.37l-6,7.94A1,1,0,0,1,196.52,320.17Z"/><path class="cls-2" d="M204.89,309l-10.65-6.24a.94.94,0,0,1-.27-1.39l7.55-9.71a.94.94,0,0,1,1.24-.22l10.3,6.35a.93.93,0,0,1,.26,1.37l-7.2,9.59A1,1,0,0,1,204.89,309Z"/><path class="cls-2" d="M214.3,296.41l-10.08-6.53a.94.94,0,0,1-.23-1.37l32.16-41.33a.94.94,0,0,1,1.2-.24l9.78,5.43a1,1,0,0,1,.3,1.4l-31.86,42.42A1,1,0,0,1,214.3,296.41Z"/><path class="cls-2" d="M238.44,246l9.77,5.35a1,1,0,0,0,1.21-.26l6-8a1,1,0,0,0-.32-1.41l-9.81-5a1,1,0,0,0-1.17.26l-6,7.64A1,1,0,0,0,238.44,246Z"/><path class="cls-2" d="M256.29,240.64l-9.52-5.06a.94.94,0,0,1-.32-1.39l3.53-4.75a.94.94,0,0,1,1.23-.26l9.33,5.36a.93.93,0,0,1,.29,1.38l-3.35,4.46A.93.93,0,0,1,256.29,240.64Z"/><path class="cls-2" d="M261.81,233.22l-3.87-2.14a1,1,0,0,1-.3-1.39l3.34-4.53a.94.94,0,0,1,1.22-.26L266,227a1,1,0,0,1,.31,1.37L263,232.93A1,1,0,0,1,261.81,233.22Z"/><path class="cls-2" d="M267.16,226.14,263.29,224a.94.94,0,0,1-.28-1.42l3.86-4.76a.93.93,0,0,1,1.16-.24l3.73,1.92a.94.94,0,0,1,.32,1.4l-3.71,4.95A.94.94,0,0,1,267.16,226.14Z"/><path class="cls-2" d="M272.84,218.52l-3.94-2a.94.94,0,0,1-.31-1.42l3.2-4.05a1,1,0,0,1,1.15-.26l3.59,1.75a1,1,0,0,1,.38,1.37l-2.84,4.33A.94.94,0,0,1,272.84,218.52Z"/><path class="cls-2" d="M257.81,221.21l2.54,1.23a.94.94,0,0,0,1.14-.25l3.82-4.63a.94.94,0,0,0-.33-1.45l-2.71-1.29a.94.94,0,0,0-1.15.27l-3.65,4.7A.93.93,0,0,0,257.81,221.21Z"/><path class="cls-2" d="M231.79,191l-3.62,4a1,1,0,0,0,.25,1.54l6.68,3.68a1,1,0,0,0,1.2-.18l.95-1a1,1,0,0,1,1.16-.2l11.39,5.64a1,1,0,0,0,1.24-.3l1.61-2.14a1,1,0,0,0-.34-1.49L233,190.78A1,1,0,0,0,231.79,191Z"/><path class="cls-2" d="M124.41,311.2l10.47,6A.91.91,0,0,0,136,317l11.48-13.41a.9.9,0,0,0-.22-1.36l-9.79-6a.91.91,0,0,0-1.15.16l-12.15,13.42A.89.89,0,0,0,124.41,311.2Z"/><path class="cls-2" d="M253.07,221l-8.15-4.83a1,1,0,0,1-.26-1.48l9.87-12.31a1,1,0,0,1,1.25-.25l8.08,4.31a1,1,0,0,1,.32,1.49l-9.81,12.82A1,1,0,0,1,253.07,221Z"/><path class="cls-2" d="M222,198.05l6.86-7.17a.89.89,0,0,0-.21-1.39l-7.78-4.34a.88.88,0,0,0-1.07.16l-7,7.19a.89.89,0,0,0,.21,1.4l7.9,4.32A.9.9,0,0,0,222,198.05Z"/><path class="cls-1" d="M292.37,358.26a6.51,6.51,0,0,1-3.09-.79l-74-39.79a6.54,6.54,0,0,1-2.17-9.63L263,240.23a6.53,6.53,0,0,1,7.82-2.15l65.4,27.74a6.56,6.56,0,0,1,3.25,9l-41.32,79.87a6.58,6.58,0,0,1-5.81,3.54Zm-24.08-118.7a4.53,4.53,0,0,0-3.65,1.85l-49.92,67.82a4.55,4.55,0,0,0,1.5,6.69l74,39.79a4.54,4.54,0,0,0,6.18-1.91l41.31-79.87a4.55,4.55,0,0,0-2.25-6.27l-65.4-27.73A4.47,4.47,0,0,0,268.29,239.56Z"/><path class="cls-3" d="M220.1,305.61l47.11-62a5.32,5.32,0,0,1,6.25-1.66l61.72,25.34a5,5,0,0,1,2.6,7l-39,73a5.31,5.31,0,0,1-7.12,2.13l-69.84-36.35A5,5,0,0,1,220.1,305.61Z"/><path class="cls-1" d="M258.34,435.31a9.93,9.93,0,0,1-5.06-1.46L57.78,317.53a3.89,3.89,0,0,1-1.89-3.33v-7.48h2v7.48a1.88,1.88,0,0,0,.92,1.61L254.3,432.13a8,8,0,0,0,4.28,1.18c3.75-.13,6.75-3.08,8.66-8.52l1.88.67c-2.78,7.93-7.23,9.73-10.47,9.85Z"/><path class="cls-1" d="M51.48,307.68a3.52,3.52,0,0,1-1.14-.18c-1.25-.44-2.1-1.57-2.53-3.36L.32,106.88c-.09-.42-2.09-10,5.12-14.47C12.1,88.29,177.57,4.4,184.61.83c.19-.09,3.79-1.69,6.7-.19a6.3,6.3,0,0,1,3.11,4.72c1.34,7,12.84,144.48,13.33,150.33a7,7,0,0,1-1.83,5.18L55,306.32l0,0A6.43,6.43,0,0,1,51.48,307.68ZM188.47,2a8.38,8.38,0,0,0-3,.63C183.79,3.49,13.08,90,6.5,94.11c-6,3.72-4.25,12.24-4.23,12.33L49.75,303.67c.27,1.09.69,1.74,1.25,1.94.91.32,2.26-.47,2.72-.81L204.53,159.43a5.07,5.07,0,0,0,1.23-3.58c-.12-1.42-12-143.23-13.31-150.11a4.39,4.39,0,0,0-2.06-3.32A4.17,4.17,0,0,0,188.47,2Z"/><path class="cls-2" d="M205,155.78,191.69,9.33a4.67,4.67,0,0,0-6.77-3.73l-174,89a15.08,15.08,0,0,0-7.78,17l45.8,189a2.74,2.74,0,0,0,4.39,1.5L73.6,285.86h2.85L194.2,176.1v-4.57l6.49-5.35A12.05,12.05,0,0,0,205,155.78ZM49.65,283.86,11.44,108.24,187.08,13.29l11.11,136.57Z"/><path class="cls-1" d="M243,130.4c-21.3,0-40.07,1.5-51.1,3.76a12,12,0,0,1-3.53.22,12.84,12.84,0,0,1-4.17-1.08,5.29,5.29,0,0,1-3-4.15,47,47,0,1,0-.74,16.57c.94-4.18,10.42-2.35,12.52-1.9l.93.19c11.23,2,29,3.37,49,3.37,34,0,61.5-3.8,61.5-8.49S277,130.4,243,130.4Zm-108.4,45.37A40.44,40.44,0,1,1,175,135.32,40.46,40.46,0,0,1,134.61,175.77Z"/><path class="cls-4" d="M121,305.93a.43.43,0,0,1-.24-.06L113.44,302a.51.51,0,0,1-.2-.68.5.5,0,0,1,.68-.2l7.27,3.91a.5.5,0,0,1,.21.68A.49.49,0,0,1,121,305.93Z"/><path class="cls-4" d="M129.29,296.12a.47.47,0,0,1-.3-.1l-5.85-4.23a.5.5,0,0,1,.58-.81l5.86,4.23a.51.51,0,0,1,.11.7A.49.49,0,0,1,129.29,296.12Z"/><path class="cls-4" d="M138.21,286a.46.46,0,0,1-.29-.1L132.55,282a.49.49,0,0,1-.11-.7.5.5,0,0,1,.69-.11l5.38,3.88a.51.51,0,0,1,.11.7A.49.49,0,0,1,138.21,286Z"/><path class="cls-4" d="M147,275.34a.53.53,0,0,1-.3-.09l-5.73-4.15a.5.5,0,1,1,.59-.81l5.73,4.15a.5.5,0,0,1,.11.69A.49.49,0,0,1,147,275.34Z"/><path class="cls-4" d="M154.74,266.73a.46.46,0,0,1-.27-.09L148.93,263a.5.5,0,0,1-.14-.69.51.51,0,0,1,.7-.14l5.53,3.68a.5.5,0,0,1,.14.69A.51.51,0,0,1,154.74,266.73Z"/><path class="cls-4" d="M163.36,257.81a.55.55,0,0,1-.25-.07l-5.59-3.24a.5.5,0,0,1,.5-.87l5.59,3.24a.51.51,0,0,1,.18.69A.5.5,0,0,1,163.36,257.81Z"/><path class="cls-4" d="M171.61,249.54a.43.43,0,0,1-.25-.07l-5.6-3.24a.5.5,0,0,1-.18-.68.5.5,0,0,1,.68-.18l5.6,3.23a.51.51,0,0,1,.18.69A.5.5,0,0,1,171.61,249.54Z"/><path class="cls-4" d="M179,241a.57.57,0,0,1-.25-.06l-5.59-3.24a.5.5,0,0,1,.5-.87l5.59,3.24a.5.5,0,0,1-.25.93Z"/><path class="cls-4" d="M186.49,233.32a.57.57,0,0,1-.25-.06L180.65,230a.5.5,0,0,1,.5-.87l5.59,3.24a.5.5,0,0,1-.25.93Z"/><path class="cls-4" d="M194.12,225.63a.47.47,0,0,1-.25-.07l-5.59-3.24a.5.5,0,0,1,.5-.86l5.59,3.24a.5.5,0,0,1-.25.93Z"/><path class="cls-4" d="M201,217.44a.51.51,0,0,1-.25-.06l-5.6-3.24a.5.5,0,0,1,.5-.87l5.6,3.24a.5.5,0,0,1-.25.93Z"/><path class="cls-4" d="M208.54,210.55a.57.57,0,0,1-.25-.06l-5.59-3.24a.5.5,0,0,1,.5-.87l5.59,3.24a.5.5,0,0,1-.25.93Z"/><path class="cls-4" d="M214.81,203.48a.55.55,0,0,1-.25-.07L209,200.17a.5.5,0,1,1,.5-.86l5.59,3.23a.51.51,0,0,1,.18.69A.5.5,0,0,1,214.81,203.48Z"/><path class="cls-4" d="M220.13,196.82a.47.47,0,0,1-.25-.07l-5.59-3.24a.5.5,0,1,1,.5-.86l5.59,3.24a.5.5,0,0,1-.25.93Z"/><path class="cls-4" d="M228.88,205.76a.55.55,0,0,1-.25-.07l-4.49-2.6a.49.49,0,0,1-.18-.68.51.51,0,0,1,.68-.19l4.49,2.6a.51.51,0,0,1,.18.69A.5.5,0,0,1,228.88,205.76Z"/><path class="cls-4" d="M235.38,198.82a.54.54,0,0,1-.25-.06l-4.49-2.6a.51.51,0,0,1-.18-.69.49.49,0,0,1,.68-.18l4.49,2.6a.51.51,0,0,1,.18.69A.49.49,0,0,1,235.38,198.82Z"/><path class="cls-4" d="M222.53,212.8a.54.54,0,0,1-.25-.06l-4.49-2.6a.51.51,0,0,1-.18-.69.49.49,0,0,1,.68-.18l4.49,2.6a.5.5,0,0,1-.25.93Z"/><path class="cls-4" d="M216.43,219.79a.55.55,0,0,1-.25-.07l-4.49-2.6a.5.5,0,0,1,.5-.87l4.49,2.6a.51.51,0,0,1,.18.69A.5.5,0,0,1,216.43,219.79Z"/><path class="cls-4" d="M209.55,227.24a.45.45,0,0,1-.25-.07l-4.49-2.6a.5.5,0,0,1,.5-.86l4.49,2.6a.5.5,0,0,1-.25.93Z"/><path class="cls-4" d="M202.92,234.94a.47.47,0,0,1-.25-.07l-4.48-2.6a.5.5,0,0,1-.19-.68.51.51,0,0,1,.69-.18l4.48,2.6a.49.49,0,0,1,.19.68A.51.51,0,0,1,202.92,234.94Z"/><path class="cls-4" d="M196,242.93a.57.57,0,0,1-.25-.06l-4.48-2.6a.5.5,0,0,1-.19-.68.51.51,0,0,1,.69-.19l4.48,2.6a.5.5,0,0,1,.19.68A.49.49,0,0,1,196,242.93Z"/><path class="cls-4" d="M189.42,252.13a.45.45,0,0,1-.25-.07l-5.76-3.3a.5.5,0,0,1-.19-.68.51.51,0,0,1,.68-.19l5.77,3.3a.51.51,0,0,1,.18.69A.5.5,0,0,1,189.42,252.13Z"/><path class="cls-4" d="M181.54,260.06a.42.42,0,0,1-.24-.07l-5.77-3.3a.49.49,0,0,1-.18-.68.5.5,0,0,1,.68-.19l5.76,3.3a.52.52,0,0,1,.19.69A.5.5,0,0,1,181.54,260.06Z"/><path class="cls-4" d="M173.3,269.69a.47.47,0,0,1-.25-.07l-5.76-3.3a.5.5,0,1,1,.5-.86l5.76,3.3a.5.5,0,0,1,.19.68A.52.52,0,0,1,173.3,269.69Z"/><path class="cls-4" d="M165.42,278.71a.45.45,0,0,1-.25-.07l-5.76-3.3a.5.5,0,0,1-.19-.68.51.51,0,0,1,.68-.19l5.77,3.3a.51.51,0,0,1,.18.69A.5.5,0,0,1,165.42,278.71Z"/><path class="cls-4" d="M157.1,288a.57.57,0,0,1-.25-.06l-5.76-3.3a.5.5,0,1,1,.5-.87l5.76,3.3a.5.5,0,0,1-.25.93Z"/><path class="cls-4" d="M147.73,298.94a.53.53,0,0,1-.24-.06l-5.77-3.3a.5.5,0,0,1,.5-.87L148,298a.5.5,0,0,1-.25.93Z"/><path class="cls-4" d="M134.61,314.25a.63.63,0,0,1-.22-.05l-6.72-3.3a.5.5,0,0,1,.44-.9l6.73,3.3a.5.5,0,0,1,.22.67A.48.48,0,0,1,134.61,314.25Z"/><path class="cls-4" d="M148.22,323.25a.59.59,0,0,1-.26-.07l-6.73-4.11a.49.49,0,0,1-.17-.68.5.5,0,0,1,.69-.17l6.73,4.1a.5.5,0,0,1,.16.69A.49.49,0,0,1,148.22,323.25Z"/><path class="cls-4" d="M163.86,303.47a.48.48,0,0,1-.26-.07l-4.77-2.91a.5.5,0,1,1,.52-.85l4.77,2.9a.5.5,0,0,1-.26.93Z"/><path class="cls-4" d="M171.58,293.27a.48.48,0,0,1-.26-.07l-4.77-2.91a.5.5,0,1,1,.52-.85l4.77,2.9a.51.51,0,0,1,.17.69A.52.52,0,0,1,171.58,293.27Z"/><path class="cls-4" d="M180.24,282.94a.54.54,0,0,1-.26-.07L175.22,280a.49.49,0,0,1-.17-.68.5.5,0,0,1,.69-.17l4.77,2.91a.5.5,0,0,1-.27.92Z"/><path class="cls-4" d="M188.15,274a.48.48,0,0,1-.26-.07L183.12,271a.5.5,0,1,1,.52-.85l4.77,2.9a.5.5,0,0,1,.16.69A.47.47,0,0,1,188.15,274Z"/><path class="cls-4" d="M196.3,264.24a.5.5,0,0,1-.26-.08l-4.77-2.9a.5.5,0,0,1,.52-.86l4.77,2.91a.5.5,0,0,1,.17.69A.52.52,0,0,1,196.3,264.24Z"/><path class="cls-4" d="M203.59,255.43a.48.48,0,0,1-.26-.07l-4.77-2.91a.5.5,0,0,1-.16-.69.49.49,0,0,1,.68-.16l4.77,2.9a.51.51,0,0,1,.17.69A.5.5,0,0,1,203.59,255.43Z"/><path class="cls-4" d="M210.52,247.3a.54.54,0,0,1-.26-.07l-4.76-2.91a.5.5,0,1,1,.52-.85l4.77,2.9a.5.5,0,0,1,.16.69A.51.51,0,0,1,210.52,247.3Z"/><path class="cls-4" d="M217.6,239.51a.48.48,0,0,1-.26-.07l-4.77-2.91a.5.5,0,0,1-.16-.69.49.49,0,0,1,.68-.16l4.77,2.9a.5.5,0,0,1-.26.93Z"/><path class="cls-4" d="M224,231.94a.48.48,0,0,1-.26-.07L219,229a.5.5,0,1,1,.52-.85l4.77,2.91a.5.5,0,0,1-.26.92Z"/><path class="cls-4" d="M230.29,223.68a.48.48,0,0,1-.26-.07l-4.77-2.91a.5.5,0,0,1,.52-.85l4.77,2.91a.49.49,0,0,1,.17.68A.49.49,0,0,1,230.29,223.68Z"/><path class="cls-4" d="M236.48,216.21a.48.48,0,0,1-.26-.07l-4.77-2.91a.5.5,0,1,1,.52-.85l4.77,2.91a.5.5,0,0,1-.26.92Z"/><path class="cls-4" d="M241.84,209.58a.48.48,0,0,1-.26-.07l-4.77-2.91a.5.5,0,0,1-.16-.69.49.49,0,0,1,.68-.16l4.77,2.9a.51.51,0,0,1,.17.69A.49.49,0,0,1,241.84,209.58Z"/><path class="cls-4" d="M252.55,218.87a.48.48,0,0,1-.26-.07l-4.77-2.91a.5.5,0,0,1-.16-.69A.49.49,0,0,1,248,215l4.77,2.9a.5.5,0,0,1,.17.69A.52.52,0,0,1,252.55,218.87Z"/><path class="cls-4" d="M246.29,226.7a.46.46,0,0,1-.23-.06l-5.68-3a.5.5,0,0,1-.21-.68.51.51,0,0,1,.68-.21l5.67,3a.49.49,0,0,1,.21.67A.5.5,0,0,1,246.29,226.7Z"/><path class="cls-4" d="M240.23,234.21a.53.53,0,0,1-.24-.06l-5.67-3a.5.5,0,1,1,.46-.88l5.68,3a.49.49,0,0,1,.21.67A.5.5,0,0,1,240.23,234.21Z"/><path class="cls-4" d="M234,241.71a.53.53,0,0,1-.24-.06l-5.67-3a.49.49,0,0,1-.21-.67.5.5,0,0,1,.68-.21l5.67,3a.5.5,0,0,1-.23,1Z"/><path class="cls-4" d="M247.27,249.31a.46.46,0,0,1-.23-.06l-5.68-3a.49.49,0,0,1-.2-.67.49.49,0,0,1,.67-.21l5.68,3a.5.5,0,0,1,.21.67A.51.51,0,0,1,247.27,249.31Z"/><path class="cls-4" d="M254,238.63a.46.46,0,0,1-.23-.06l-5.68-3a.49.49,0,0,1-.2-.67.49.49,0,0,1,.67-.21l5.68,3a.49.49,0,0,1,.2.67A.49.49,0,0,1,254,238.63Z"/><path class="cls-4" d="M262.4,232a.53.53,0,0,1-.24-.06l-2.84-1.51a.5.5,0,0,1-.2-.68.49.49,0,0,1,.67-.2l2.84,1.5a.5.5,0,0,1-.23.95Z"/><path class="cls-4" d="M267.22,225.19a.46.46,0,0,1-.23-.06l-2.84-1.5a.5.5,0,0,1-.21-.68.51.51,0,0,1,.68-.21l2.84,1.51a.5.5,0,0,1,.2.68A.49.49,0,0,1,267.22,225.19Z"/><path class="cls-4" d="M272.73,217.46a.53.53,0,0,1-.24-.06l-2.84-1.5a.51.51,0,0,1-.2-.68.5.5,0,0,1,.67-.21l2.84,1.51a.51.51,0,0,1,.21.68A.5.5,0,0,1,272.73,217.46Z"/><path class="cls-4" d="M261,221.91a.53.53,0,0,1-.24-.06l-2.13-1.13a.5.5,0,0,1-.21-.68.5.5,0,0,1,.68-.2l2.13,1.13a.5.5,0,0,1,.21.68A.49.49,0,0,1,261,221.91Z"/><path class="cls-4" d="M228.36,250.16a.46.46,0,0,1-.23-.06l-5.68-3a.5.5,0,1,1,.47-.88l5.68,3a.5.5,0,0,1,.2.68A.49.49,0,0,1,228.36,250.16Z"/><path class="cls-4" d="M221,258.41a.46.46,0,0,1-.23-.06l-5.68-3a.52.52,0,0,1-.21-.68.51.51,0,0,1,.68-.21l5.68,3a.49.49,0,0,1,.2.67A.49.49,0,0,1,221,258.41Z"/><path class="cls-4" d="M214.05,267.15a.53.53,0,0,1-.24-.06l-5.67-3a.5.5,0,0,1-.21-.68.51.51,0,0,1,.68-.21l5.67,3a.49.49,0,0,1,.21.67A.5.5,0,0,1,214.05,267.15Z"/><path class="cls-4" d="M205.83,276.37a.46.46,0,0,1-.23-.06l-5.68-3a.5.5,0,1,1,.47-.88l5.68,3a.49.49,0,0,1,.2.67A.5.5,0,0,1,205.83,276.37Z"/><path class="cls-4" d="M198.83,286.34a.52.52,0,0,1-.24,0l-5.67-3a.5.5,0,0,1-.21-.68.5.5,0,0,1,.68-.2l5.67,3a.5.5,0,0,1,.21.68A.49.49,0,0,1,198.83,286.34Z"/><path class="cls-4" d="M191,295.9a.53.53,0,0,1-.24-.06l-5.68-3a.5.5,0,0,1-.2-.68.49.49,0,0,1,.67-.2l5.68,3a.51.51,0,0,1,.21.68A.5.5,0,0,1,191,295.9Z"/><path class="cls-4" d="M182.39,305.91a.53.53,0,0,1-.24-.06l-5.67-3a.5.5,0,0,1-.21-.68A.51.51,0,0,1,177,302l5.67,3a.49.49,0,0,1,.21.67A.5.5,0,0,1,182.39,305.91Z"/><path class="cls-4" d="M173.05,316.86a.53.53,0,0,1-.23-.06l-5.68-3a.49.49,0,0,1-.2-.67.49.49,0,0,1,.67-.21l5.68,3a.5.5,0,0,1,.21.67A.51.51,0,0,1,173.05,316.86Z"/><path class="cls-4" d="M162.41,331.71a.52.52,0,0,1-.29-.09l-5.68-4a.5.5,0,0,1,.58-.82l5.67,4a.5.5,0,0,1,.13.69A.51.51,0,0,1,162.41,331.71Z"/><path class="cls-4" d="M177.61,340.13a.52.52,0,0,1-.29-.09l-5.68-4a.5.5,0,0,1-.12-.69.51.51,0,0,1,.7-.13l5.67,4a.5.5,0,0,1,.13.69A.52.52,0,0,1,177.61,340.13Z"/><path class="cls-4" d="M186.74,328.21a.49.49,0,0,1-.23-.06l-6.5-3.49a.51.51,0,0,1-.21-.68.5.5,0,0,1,.68-.2l6.5,3.49a.49.49,0,0,1,.21.67A.51.51,0,0,1,186.74,328.21Z"/><path class="cls-4" d="M194.65,317.1a.53.53,0,0,1-.24-.06l-6.5-3.49a.5.5,0,0,1-.2-.68.49.49,0,0,1,.67-.2l6.5,3.49a.49.49,0,0,1,.21.67A.51.51,0,0,1,194.65,317.1Z"/><path class="cls-4" d="M203.83,305.5a.52.52,0,0,1-.24-.05l-6.5-3.49a.51.51,0,0,1-.2-.68.5.5,0,0,1,.68-.2l6.5,3.48a.51.51,0,0,1,.2.68A.49.49,0,0,1,203.83,305.5Z"/><path class="cls-4" d="M213.26,294.05A.53.53,0,0,1,213,294l-6.5-4.24a.5.5,0,0,1-.15-.69.51.51,0,0,1,.7-.15l6.5,4.24a.5.5,0,0,1,.14.69A.48.48,0,0,1,213.26,294.05Z"/><path class="cls-4" d="M134.6,124.79H109a1.5,1.5,0,0,1,0-3H134.6a1.5,1.5,0,0,1,0,3Z"/><path class="cls-4" d="M160.56,124.79H141.21a1.5,1.5,0,0,1,0-3h19.35a1.5,1.5,0,0,1,0,3Z"/><path class="cls-4" d="M127.89,134.05H100.65a1.5,1.5,0,0,1,0-3h27.24a1.5,1.5,0,0,1,0,3Z"/><path class="cls-4" d="M159.65,134.05h-22.8a1.5,1.5,0,1,1,0-3h22.8a1.5,1.5,0,1,1,0,3Z"/><path class="cls-4" d="M119.64,143.31H102.21a1.5,1.5,0,1,1,0-3h17.43a1.5,1.5,0,0,1,0,3Z"/><path class="cls-4" d="M144.08,143.31H127.89a1.5,1.5,0,1,1,0-3h16.19a1.5,1.5,0,0,1,0,3Z"/><path class="cls-4" d="M165.42,143.31H151.34a1.5,1.5,0,1,1,0-3h14.08a1.5,1.5,0,1,1,0,3Z"/><path class="cls-4" d="M129.31,152.57h-23a1.5,1.5,0,1,1,0-3h23a1.5,1.5,0,0,1,0,3Z"/><path class="cls-4" d="M155,152.57H138.46a1.5,1.5,0,1,1,0-3H155a1.5,1.5,0,0,1,0,3Z"/><path class="cls-4" d="M144.08,113.47H121.82a1.5,1.5,0,0,1,0-3h22.26a1.5,1.5,0,0,1,0,3Z"/><path class="cls-4" d="M146.66,163.61H121.82a1.5,1.5,0,0,1,0-3h24.84a1.5,1.5,0,0,1,0,3Z"/><path class="cls-5" d="M246.27,271.2l68.88,45.46,22.63-42.34s1.92-4.18-2.6-7L273.46,242s-3.83-1.53-6.25,1.66Z"/></svg>