<svg id="Calque_1" data-name="Calque 1" xmlns="http://www.w3.org/2000/svg" xmlns:xlink="http://www.w3.org/1999/xlink" viewBox="0 0 221.18 252.1"><defs><style>.cls-1{fill:none;}.cls-2{fill:#203dfc;}.cls-3{fill:#0627bc;}.cls-4{clip-path:url(#clip-path);}.cls-5{fill:#ffb8ab;}.cls-6{fill:#f59d92;}.cls-7{clip-path:url(#clip-path-2);}</style><clipPath id="clip-path"><path class="cls-1" d="M108.18,216.49V251a1.1,1.1,0,0,1-1.65.95L76.28,234.4a1.1,1.1,0,0,1-.55-1V199a1.09,1.09,0,0,1,1.64-.95l30.26,17.49A1.09,1.09,0,0,1,108.18,216.49Z"/></clipPath><clipPath id="clip-path-2"><path class="cls-1" d="M70.35,150.57v34.51a1.1,1.1,0,0,1-1.65.95L38.44,168.48a1.1,1.1,0,0,1-.55-.95V133.08a1.1,1.1,0,0,1,1.65-1L69.8,149.62A1.08,1.08,0,0,1,70.35,150.57Z"/></clipPath></defs><path class="cls-2" d="M36.74,43.84l29.87,17.8a1.09,1.09,0,0,1,0,1.89L36.74,80.67a1.08,1.08,0,0,1-1.1,0L5.54,63.2a1.1,1.1,0,0,1,0-1.9L35.63,43.84A1.1,1.1,0,0,1,36.74,43.84Z"/><path class="cls-2" d="M73.62,65.46l29.86,17.8a1.09,1.09,0,0,1,0,1.89L73.61,102.29a1.07,1.07,0,0,1-1.09,0L42.41,84.82a1.1,1.1,0,0,1,0-1.9l30.1-17.46A1.1,1.1,0,0,1,73.62,65.46Z"/><path class="cls-2" d="M109.63,43.84l29.86,17.8a1.1,1.1,0,0,1,0,1.89L109.62,80.67a1.07,1.07,0,0,1-1.09,0L78.42,63.2a1.11,1.11,0,0,1,0-1.9l30.1-17.46A1.1,1.1,0,0,1,109.63,43.84Z"/><path class="cls-2" d="M146,22.29l29.86,17.79a1.11,1.11,0,0,1,0,1.9L146,59.12a1.07,1.07,0,0,1-1.09,0L114.82,41.65a1.11,1.11,0,0,1,0-1.9l30.1-17.46A1.1,1.1,0,0,1,146,22.29Z"/><path class="cls-2" d="M182.23,43.84l29.86,17.8a1.1,1.1,0,0,1,0,1.89L182.23,80.67a1.08,1.08,0,0,1-1.1,0L151,63.2a1.11,1.11,0,0,1,0-1.9l30.1-17.46A1.1,1.1,0,0,1,182.23,43.84Z"/><path class="cls-2" d="M109.63,87.53l29.86,17.79a1.11,1.11,0,0,1,0,1.9l-29.86,17.14a1.09,1.09,0,0,1-1.09,0L78.42,106.89a1.11,1.11,0,0,1,0-1.9l30.1-17.46A1.1,1.1,0,0,1,109.63,87.53Z"/><path class="cls-2" d="M146,65.46l29.86,17.8a1.1,1.1,0,0,1,0,1.89L146,102.29a1.07,1.07,0,0,1-1.09,0L114.82,84.82a1.11,1.11,0,0,1,0-1.9l30.1-17.46A1.1,1.1,0,0,1,146,65.46Z"/><path class="cls-2" d="M73.62,22.29l29.86,17.79a1.1,1.1,0,0,1,0,1.9L73.61,59.12a1.07,1.07,0,0,1-1.09,0L42.41,41.65a1.1,1.1,0,0,1,0-1.9l30.1-17.46A1.1,1.1,0,0,1,73.62,22.29Z"/><path class="cls-2" d="M110.39.15,140.25,18a1.09,1.09,0,0,1,0,1.89L110.38,37a1.07,1.07,0,0,1-1.09,0L79.18,19.51a1.1,1.1,0,0,1,0-1.9L109.28.15A1.1,1.1,0,0,1,110.39.15Z"/><path class="cls-3" d="M140.24,19.84l-1,.58L110.39,3.22a1.1,1.1,0,0,0-1.11,0L80.19,20.1l-1-.59a1.09,1.09,0,0,1,0-1.89L109.28.15a1.08,1.08,0,0,1,1.11,0L140.25,18A1.1,1.1,0,0,1,140.24,19.84Z"/><path class="cls-3" d="M175.88,42l-1,.58L146,25.4a1.1,1.1,0,0,0-1.11,0L115.83,42.28l-1-.59a1.09,1.09,0,0,1,0-1.89l30.1-17.47a1.08,1.08,0,0,1,1.11,0l29.86,17.79A1.1,1.1,0,0,1,175.88,42Z"/><path class="cls-3" d="M212.08,63.58l-1,.58L182.23,47a1.1,1.1,0,0,0-1.11,0L152,63.84l-1-.59a1.09,1.09,0,0,1,0-1.89l30.1-17.47a1.08,1.08,0,0,1,1.11,0l29.86,17.79A1.1,1.1,0,0,1,212.08,63.58Z"/><path class="cls-3" d="M139.48,63.58l-1,.58L109.63,47a1.1,1.1,0,0,0-1.11,0L79.43,63.84l-1-.59a1.09,1.09,0,0,1,0-1.89l30.1-17.47a1.08,1.08,0,0,1,1.11,0l29.86,17.79A1.1,1.1,0,0,1,139.48,63.58Z"/><path class="cls-3" d="M103.47,42l-1,.58L73.62,25.4a1.1,1.1,0,0,0-1.11,0L43.42,42.28l-1-.59a1.09,1.09,0,0,1,0-1.89l30.1-17.47a1.08,1.08,0,0,1,1.11,0l29.86,17.79A1.1,1.1,0,0,1,103.47,42Z"/><path class="cls-3" d="M66.6,63.58l-1,.58L36.75,47a1.1,1.1,0,0,0-1.11,0L6.55,63.84l-1-.59a1.09,1.09,0,0,1,0-1.89l30.1-17.47a1.08,1.08,0,0,1,1.11,0L66.61,61.69A1.1,1.1,0,0,1,66.6,63.58Z"/><path class="cls-3" d="M103.47,85l-1,.58L73.62,68.34a1.1,1.1,0,0,0-1.11,0L43.42,85.22l-1-.59a1.09,1.09,0,0,1,0-1.89l30.1-17.47a1.08,1.08,0,0,1,1.11,0l29.86,17.79A1.1,1.1,0,0,1,103.47,85Z"/><path class="cls-3" d="M139.48,107.07l-1,.58-28.85-17.2a1.1,1.1,0,0,0-1.11,0L79.43,107.33l-1-.59a1.09,1.09,0,0,1,0-1.89l30.1-17.47a1.08,1.08,0,0,1,1.11,0l29.86,17.79A1.1,1.1,0,0,1,139.48,107.07Z"/><path class="cls-3" d="M175.88,85.33l-1,.58L146,68.71a1.1,1.1,0,0,0-1.11,0L115.83,85.59l-1-.59a1.09,1.09,0,0,1,0-1.89l30.1-17.47a1.08,1.08,0,0,1,1.11,0l29.86,17.79A1.1,1.1,0,0,1,175.88,85.33Z"/><g class="cls-4"><path class="cls-5" d="M81.7,207.53a6.72,6.72,0,0,1-3.39-1.07l-17.4-10.39a16.89,16.89,0,0,1-7.4-13l-.58-80.8c0-2,.66-3.49,1.91-4.21s2.84-.55,4.52.45a13.74,13.74,0,0,1,6,10.56l.49,71a8.69,8.69,0,0,0,3.8,6.67l.52.31a2.33,2.33,0,0,0,2.31.32,2.38,2.38,0,0,0,.92-2.2L73,115.88c0-2.45.81-4.28,2.33-5.16s3.47-.66,5.54.57l16.69,9.92a16.92,16.92,0,0,1,7.43,13l.16,26.37c0,2-.67,3.49-1.92,4.2s-2.85.54-4.53-.46a13.7,13.7,0,0,1-6-10.56l-.11-16.56a8.66,8.66,0,0,0-3.81-6.68,2.32,2.32,0,0,0-2.32-.32,2.41,2.41,0,0,0-.92,2.21l.46,69.62c0,2.36-.79,4.12-2.26,5A3.91,3.91,0,0,1,81.7,207.53ZM56.53,98.65a2.36,2.36,0,0,0-1.19.3c-.92.53-1.42,1.71-1.41,3.33l.58,80.81a15.77,15.77,0,0,0,6.91,12.12L78.83,205.6c1.67,1,3.22,1.2,4.35.55s1.76-2.1,1.75-4.08l-.46-69.63a3.29,3.29,0,0,1,1.42-3.07,3.23,3.23,0,0,1,3.33.32,9.6,9.6,0,0,1,4.3,7.54l.11,16.56a12.59,12.59,0,0,0,5.53,9.7c1.36.81,2.62,1,3.52.45s1.43-1.7,1.42-3.32l-.16-26.38A15.82,15.82,0,0,0,97,122.07l-16.69-9.92c-1.74-1-3.35-1.24-4.53-.56s-1.85,2.21-1.83,4.28l.47,69.35A2.9,2.9,0,0,1,69.67,188l-.51-.31a9.67,9.67,0,0,1-4.29-7.52l-.49-71a12.62,12.62,0,0,0-5.53-9.71A4.67,4.67,0,0,0,56.53,98.65Z"/><path class="cls-5" d="M101.23,247.16a7,7,0,0,1-3.51-1.1L5.08,190.69a13.74,13.74,0,0,1-6-10.51h0c0-2,.66-3.47,1.9-4.18s2.82-.54,4.5.46l84.37,50.39a2.35,2.35,0,0,0,2.32.32,2.39,2.39,0,0,0,.91-2.19l-.29-45.47c0-2,.67-3.47,1.91-4.19s2.85-.54,4.54.46a13.74,13.74,0,0,1,6,10.56l.34,55.19c0,2.43-.81,4.25-2.33,5.11A4,4,0,0,1,101.23,247.16ZM2.65,176.57a2.29,2.29,0,0,0-1.17.3c-.92.52-1.41,1.69-1.4,3.3a12.59,12.59,0,0,0,5.51,9.66L98.24,245.2c1.74,1,3.35,1.25,4.53.57s1.83-2.18,1.82-4.23l-.34-55.19a12.62,12.62,0,0,0-5.53-9.71c-1.36-.81-2.61-1-3.52-.45s-1.42,1.71-1.41,3.32L94.08,225a2.9,2.9,0,0,1-4.75,2.74L5,177.32A4.6,4.6,0,0,0,2.65,176.57Z"/><path class="cls-5" d="M39.74,100.68a5.16,5.16,0,0,1-2.6-.81L3.78,80A13,13,0,0,1-1.83,70v-.54c0-2,.64-3.43,1.85-4.12a4.07,4.07,0,0,1,4.17.4L37.55,85.57a13,13,0,0,1,5.62,10v.54c0,2-.64,3.43-1.85,4.12A3.18,3.18,0,0,1,39.74,100.68ZM1.59,65.92a2.07,2.07,0,0,0-1.08.28c-.87.5-1.36,1.68-1.35,3.24V70a11.86,11.86,0,0,0,5.12,9.18L37.65,99a3.15,3.15,0,0,0,3.17.39c.87-.5,1.36-1.68,1.35-3.24v-.54A11.91,11.91,0,0,0,37,86.43L3.67,66.59A4.21,4.21,0,0,0,1.59,65.92Z"/><path class="cls-5" d="M40,154.2a5.64,5.64,0,0,1-2.83-.89l-31-18.5A17.19,17.19,0,0,1-1.4,121.62l-.19-22.16c0-2.47.81-4.31,2.34-5.19s3.48-.66,5.56.57l31.06,18.49a13.72,13.72,0,0,1,6,10.54c0,2-.67,3.48-1.91,4.2s-2.84.54-4.51-.46L13.9,113.88a2.33,2.33,0,0,0-2.3-.31,2.35,2.35,0,0,0-.91,2.2l0,2.86a8.7,8.7,0,0,0,3.8,6.67L37.56,139a13.72,13.72,0,0,1,6,10.53c0,2-.66,3.48-1.91,4.19A3.32,3.32,0,0,1,40,154.2ZM-.59,99.45l.19,22.16a16.07,16.07,0,0,0,7,12.34l31,18.5c1.36.81,2.6,1,3.5.45s1.42-1.71,1.41-3.32a12.63,12.63,0,0,0-5.52-9.68L14,126.16a9.65,9.65,0,0,1-4.29-7.52l0-2.86a3.32,3.32,0,0,1,1.41-3.08,3.24,3.24,0,0,1,3.31.32l23.06,13.73c1.35.81,2.6,1,3.5.45s1.42-1.71,1.41-3.32a12.65,12.65,0,0,0-5.53-9.7L5.79,95.7c-1.75-1-3.36-1.24-4.54-.56S-.61,97.36-.59,99.45Z"/><path class="cls-5" d="M40.36,183.07a5.16,5.16,0,0,1-2.6-.81L4.45,162.37a13,13,0,0,1-5.6-10v-.54c0-1.95.64-3.41,1.84-4.1a4.07,4.07,0,0,1,4.16.4L38.17,168a13,13,0,0,1,5.61,10v.54c0,2-.64,3.4-1.84,4.09A3.18,3.18,0,0,1,40.36,183.07ZM2.27,148.32a2.14,2.14,0,0,0-1.08.27c-.87.49-1.36,1.67-1.34,3.22v.54A11.88,11.88,0,0,0,5,161.51L38.27,181.4a3.18,3.18,0,0,0,3.17.4c.86-.5,1.35-1.67,1.34-3.23V178a11.9,11.9,0,0,0-5.12-9.17L4.34,149A4.15,4.15,0,0,0,2.27,148.32Z"/><path class="cls-5" d="M55.92,104.35l.58,80.81a16.32,16.32,0,0,0,7.15,12.55L81.06,208.1c3.82,2.28,6.88.5,6.86-4l-.46-69.63c0-2.61,1.78-3.65,4-2.32h0a9.24,9.24,0,0,1,4.06,7.11l.1,16.56A13.15,13.15,0,0,0,101.39,166h0c3.17,1.89,5.72.41,5.7-3.3l-.16-26.38a16.37,16.37,0,0,0-7.18-12.6l-16.69-9.92c-4-2.36-7.15-.5-7.12,4.15l.47,69.35c0,2.6-1.77,3.63-4,2.31l-.51-.31a9.23,9.23,0,0,1-4-7.1l-.49-71A13.18,13.18,0,0,0,61.6,101h0C58.43,99.15,55.89,100.64,55.92,104.35Z"/><path class="cls-5" d="M2.07,182.24h0a13.15,13.15,0,0,0,5.75,10.09l92.65,55.37c4,2.36,7.14.53,7.11-4.1l-.34-55.19a13.14,13.14,0,0,0-5.77-10.13h0c-3.17-1.88-5.71-.41-5.69,3.3l.29,45.47c0,2.59-1.77,3.62-4,2.3L7.71,179C4.57,177.08,2,178.55,2.07,182.24Z"/><path class="cls-5" d="M45.16,98.23v-.55a12.44,12.44,0,0,0-5.37-9.61L6.41,68.23C3.48,66.48,1.12,68,1.15,71.52v.54a12.42,12.42,0,0,0,5.36,9.6l33.37,19.85C42.83,103.26,45.19,101.79,45.16,98.23Z"/><path class="cls-5" d="M1.4,101.53l.19,22.15a16.6,16.6,0,0,0,7.27,12.77l31,18.5c3.15,1.88,5.69.4,5.66-3.3h0a13.14,13.14,0,0,0-5.77-10.11l-23-13.74a9.21,9.21,0,0,1-4.05-7.09l0-2.86c0-2.6,1.75-3.65,4-2.33L39.7,129.25c3.16,1.88,5.7.4,5.67-3.31h0a13.16,13.16,0,0,0-5.77-10.12L8.54,97.34C4.56,95,1.36,96.84,1.4,101.53Z"/><path class="cls-5" d="M45.77,180.64v-.54a12.46,12.46,0,0,0-5.36-9.6L7.09,150.62c-2.93-1.74-5.28-.28-5.25,3.27v.53A12.42,12.42,0,0,0,7.2,164L40.51,183.9C43.44,185.65,45.8,184.19,45.77,180.64Z"/><path class="cls-6" d="M94.92,138.31c-.13-.23-.27-.45-.42-.67a6.36,6.36,0,0,1,.07.86l.1,16.56A12.41,12.41,0,0,0,96.48,161a9.43,9.43,0,0,1-.25-2.07l-.11-16.56A8.4,8.4,0,0,0,94.92,138.31Z"/><path class="cls-6" d="M68.54,186.11a9.35,9.35,0,0,0,4,6.23l.51.31c2.22,1.32,4,.29,4-2.31L76.55,121c0-4.65,3.15-6.51,7.11-4.15l16.69,9.92a15.09,15.09,0,0,1,5.19,5.68,16.42,16.42,0,0,0-6.74-9.53L82.11,113c-4-2.35-7.15-.49-7.12,4.16l.47,69.34c0,2.6-1.77,3.64-4,2.31l-.51-.3A7.86,7.86,0,0,1,68.54,186.11Z"/><path class="cls-6" d="M55,103.56l.58,80.8a14.88,14.88,0,0,0,2,6.88,12.06,12.06,0,0,1-.44-3l-.57-80.81c0-2.62,1.24-4.13,3.1-4.13a5.13,5.13,0,0,1,2.57.81,12,12,0,0,1,4,4.21,13.34,13.34,0,0,0-5.52-8.06,5.13,5.13,0,0,0-2.57-.81C56.22,99.42,55,100.93,55,103.56Z"/><path class="cls-6" d="M2.94,187.33a9.13,9.13,0,0,1-.26-2c0-3.69,2.49-5.16,5.64-3.29l84.37,50.4c2.22,1.32,4,.29,4-2.31l-.29-45.46c0-2.62,1.24-4.12,3.1-4.12a5.25,5.25,0,0,1,2.59.82,11.9,11.9,0,0,1,4,4.21,13.27,13.27,0,0,0-5.51-8,5.09,5.09,0,0,0-2.59-.82c-1.85,0-3.11,1.5-3.1,4.11l.29,45.47c0,2.6-1.77,3.63-4,2.3L6.77,178.16c-3.15-1.88-5.68-.41-5.64,3.29A12.16,12.16,0,0,0,2.94,187.33Z"/><path class="cls-6" d="M.2,70.72v.54A12.07,12.07,0,0,0,2,77.08a9.72,9.72,0,0,1-.24-2v-.55c0-3.56,2.32-5,5.26-3.29L40.39,91.12A10.76,10.76,0,0,1,44,94.91a12.48,12.48,0,0,0-5.14-7.64L5.46,67.43C2.53,65.69.17,67.16.2,70.72Z"/><path class="cls-6" d="M13.38,124.62a9.37,9.37,0,0,0,4,6.23l23,13.73a11.89,11.89,0,0,1,4,4.2,14.13,14.13,0,0,0-1.46-3.67,12.08,12.08,0,0,0-4-4.37L15.8,127A7.86,7.86,0,0,1,13.38,124.62Z"/><path class="cls-6" d="M.45,100.73l.19,22.15a15.25,15.25,0,0,0,2,7,12.34,12.34,0,0,1-.46-3.12L2,104.57c0-4.68,3.16-6.55,7.14-4.18l31.06,18.48A11.92,11.92,0,0,1,44.15,123a13.54,13.54,0,0,0-1.44-3.64A12.1,12.1,0,0,0,38.65,115L7.59,96.54C3.61,94.17.41,96.05.45,100.73Z"/><path class="cls-6" d="M.89,153.09v.54a12,12,0,0,0,1.8,5.82,9.15,9.15,0,0,1-.24-2v-.54c0-3.55,2.32-5,5.25-3.26L41,173.55a10.82,10.82,0,0,1,3.57,3.77,12.46,12.46,0,0,0-5.12-7.62L6.14,149.83C3.21,148.08.86,149.54.89,153.09Z"/></g><path class="cls-5" d="M163.42,104.6l-.58,80.8A16.33,16.33,0,0,1,155.68,198l-17.4,10.39c-3.82,2.27-6.89.5-6.86-4l.45-69.63c0-2.6-1.77-3.64-4-2.32h0a9.23,9.23,0,0,0-4.06,7.11l-.1,16.56a13.16,13.16,0,0,1-5.78,10.13h0c-3.16,1.89-5.71.41-5.69-3.3l.16-26.38a16.34,16.34,0,0,1,7.18-12.6L136.28,114c4-2.35,7.15-.49,7.12,4.16l-.47,69.34c0,2.6,1.77,3.64,4,2.31l.51-.3a9.26,9.26,0,0,0,4-7.1l.49-71a13.16,13.16,0,0,1,5.77-10.13h0C160.9,99.4,163.44,100.88,163.42,104.6Z"/><path class="cls-5" d="M217.26,182.49h0a13.11,13.11,0,0,1-5.75,10.08l-92.64,55.37c-4,2.36-7.14.53-7.11-4.09l.33-55.19a13.16,13.16,0,0,1,5.78-10.13h0c3.16-1.89,5.71-.41,5.69,3.29l-.29,45.47c0,2.6,1.77,3.63,4,2.3l84.36-50.39C214.77,177.32,217.29,178.79,217.26,182.49Z"/><path class="cls-5" d="M174.17,98.47v-.54a12.42,12.42,0,0,1,5.37-9.62l33.38-19.84c2.93-1.74,5.28-.27,5.26,3.29v.54a12.46,12.46,0,0,1-5.36,9.61l-33.37,19.84C176.51,103.5,174.15,102,174.17,98.47Z"/><path class="cls-5" d="M217.94,101.77l-.19,22.15c0,4.68-3.29,10.4-7.27,12.77l-31,18.5c-3.15,1.88-5.69.4-5.66-3.3h0a13.17,13.17,0,0,1,5.76-10.11l23.05-13.73a9.28,9.28,0,0,0,4-7.1l0-2.86c0-2.6-1.76-3.64-4-2.32L179.64,129.5c-3.16,1.87-5.7.39-5.67-3.31h0a13.16,13.16,0,0,1,5.77-10.12L210.8,97.58C214.78,95.21,218,97.09,217.94,101.77Z"/><path class="cls-5" d="M173.56,180.88v-.54a12.43,12.43,0,0,1,5.36-9.6l33.32-19.87c2.93-1.75,5.28-.29,5.25,3.26v.54a12.43,12.43,0,0,1-5.35,9.59l-33.31,19.88C175.9,185.89,173.54,184.43,173.56,180.88Z"/><path class="cls-5" d="M137.65,206.82a3.92,3.92,0,0,1-2-.51c-1.47-.84-2.27-2.6-2.25-5l.45-69.62a2.37,2.37,0,0,0-.92-2.21,2.34,2.34,0,0,0-2.32.31,8.75,8.75,0,0,0-3.81,6.69l-.1,16.56a13.76,13.76,0,0,1-6,10.56c-1.69,1-3.3,1.17-4.54.46s-1.92-2.21-1.91-4.2l.16-26.38a16.94,16.94,0,0,1,7.42-13l16.69-9.92c2.07-1.23,4-1.43,5.54-.57s2.35,2.71,2.34,5.16l-.47,69.34a1.93,1.93,0,0,0,3.23,1.88l.51-.31a8.66,8.66,0,0,0,3.8-6.67l.5-71a13.71,13.71,0,0,1,6-10.56c1.68-1,3.29-1.16,4.52-.45s1.93,2.21,1.92,4.21l-.58,80.8c0,4.74-3.35,10.57-7.4,13L141,205.75A6.72,6.72,0,0,1,137.65,206.82Zm-5.46-78.49a2.56,2.56,0,0,1,1.26.32,3.3,3.3,0,0,1,1.42,3.08l-.45,69.63c0,2,.61,3.43,1.75,4.08s2.67.46,4.35-.55l17.41-10.39a15.77,15.77,0,0,0,6.91-12.13l.58-80.8c0-1.62-.49-2.81-1.42-3.33s-2.15-.36-3.51.44a12.61,12.61,0,0,0-5.52,9.7l-.5,71a9.61,9.61,0,0,1-4.29,7.52l-.51.31a2.9,2.9,0,0,1-4.74-2.74l.47-69.35c0-2.07-.64-3.59-1.84-4.28s-2.78-.48-4.53.56l-16.69,9.92a15.84,15.84,0,0,0-6.93,12.17l-.16,26.38c0,1.61.49,2.79,1.41,3.32s2.17.36,3.53-.45a12.65,12.65,0,0,0,5.53-9.7l.1-16.56a9.69,9.69,0,0,1,4.3-7.55A4.2,4.2,0,0,1,132.19,128.33Z"/><path class="cls-5" d="M118.12,246.45a4,4,0,0,1-2-.52c-1.51-.86-2.34-2.68-2.32-5.11l.33-55.19a13.78,13.78,0,0,1,6-10.56c1.69-1,3.29-1.16,4.53-.46s1.93,2.21,1.91,4.19l-.28,45.47a1.93,1.93,0,0,0,3.23,1.87l84.37-50.39c1.67-1,3.27-1.17,4.5-.46s1.91,2.19,1.89,4.18a13.72,13.72,0,0,1-6,10.51l-92.65,55.37A7,7,0,0,1,118.12,246.45ZM123,175.18a4.66,4.66,0,0,0-2.33.75,12.65,12.65,0,0,0-5.53,9.71l-.33,55.19c0,2,.63,3.56,1.82,4.23s2.78.47,4.53-.57l92.65-55.37a12.61,12.61,0,0,0,5.5-9.66c0-1.61-.48-2.78-1.39-3.3s-2.14-.36-3.49.45L130,227a2.9,2.9,0,0,1-4.74-2.74l.28-45.46c0-1.61-.49-2.79-1.41-3.32A2.36,2.36,0,0,0,123,175.18Z"/><path class="cls-5" d="M179.61,100a3.15,3.15,0,0,1-1.58-.41c-1.21-.69-1.87-2.16-1.86-4.12V94.9a13,13,0,0,1,5.61-10L215.17,65a4.05,4.05,0,0,1,4.16-.4c1.21.69,1.87,2.16,1.85,4.12v.54a13,13,0,0,1-5.61,10L182.2,99.16A5.09,5.09,0,0,1,179.61,100Zm38.14-34.76a4.18,4.18,0,0,0-2.07.67L182.3,85.72a11.88,11.88,0,0,0-5.12,9.19v.54c0,1.56.48,2.74,1.35,3.24a3.15,3.15,0,0,0,3.17-.39l33.37-19.85a11.91,11.91,0,0,0,5.12-9.18v-.54c0-1.56-.47-2.74-1.34-3.24A2.11,2.11,0,0,0,217.75,65.21Z"/><path class="cls-5" d="M179.36,153.49a3.34,3.34,0,0,1-1.68-.44c-1.24-.71-1.92-2.2-1.9-4.19a13.69,13.69,0,0,1,6-10.53l23-13.74a8.64,8.64,0,0,0,3.8-6.67l0-2.86a2.37,2.37,0,0,0-.91-2.2,2.32,2.32,0,0,0-2.31.31L182.39,126.9c-1.68,1-3.28,1.16-4.51.46s-1.93-2.21-1.91-4.2a13.7,13.7,0,0,1,6-10.54L213,94.13c2.07-1.23,4.05-1.44,5.55-.57s2.37,2.72,2.35,5.19h0l-.19,22.15c0,4.83-3.41,10.75-7.52,13.2l-31,18.5A5.64,5.64,0,0,1,179.36,153.49ZM207,111.67a2.56,2.56,0,0,1,1.26.32,3.31,3.31,0,0,1,1.41,3.08l0,2.86a9.64,9.64,0,0,1-4.28,7.52l-23,13.73a12.6,12.6,0,0,0-5.52,9.69c0,1.61.48,2.79,1.4,3.32s2.15.36,3.51-.45l31-18.5a16.1,16.1,0,0,0,7-12.34l.19-22.16c0-2.09-.64-3.62-1.84-4.31s-2.8-.48-4.55.56l-31.06,18.48a12.61,12.61,0,0,0-5.52,9.7c0,1.61.49,2.79,1.4,3.32s2.15.36,3.51-.45l23.05-13.73A4.16,4.16,0,0,1,207,111.67Z"/><path class="cls-5" d="M179,182.36a3.14,3.14,0,0,1-1.57-.41c-1.21-.69-1.86-2.14-1.85-4.09v-.54a13,13,0,0,1,5.6-10l33.32-19.88a4.09,4.09,0,0,1,4.17-.4c1.2.69,1.85,2.15,1.84,4.1v.54a13,13,0,0,1-5.6,10l-33.31,19.89A5.13,5.13,0,0,1,179,182.36Zm38.1-34.76a4.24,4.24,0,0,0-2.08.67l-33.31,19.88a11.87,11.87,0,0,0-5.12,9.17v.54c0,1.56.48,2.73,1.35,3.22a3.11,3.11,0,0,0,3.16-.39l33.31-19.89a11.88,11.88,0,0,0,5.11-9.16v-.54c0-1.55-.48-2.73-1.34-3.22A2.17,2.17,0,0,0,217.08,147.6Z"/><path class="cls-2" d="M32.36,122a2.11,2.11,0,0,1-1.06-.29L1,104.12a2.1,2.1,0,0,1-1-1.81V67.85A2.07,2.07,0,0,1,1.05,66a2.08,2.08,0,0,1,2.1,0L33.4,83.53a2.09,2.09,0,0,1,1.05,1.81v34.52a2.06,2.06,0,0,1-1.05,1.81A2.1,2.1,0,0,1,32.36,122ZM2.14,67.77,2,67.85v34.46l30.31,17.63.14-.08V85.34a.1.1,0,0,0-.05-.08Z"/><g class="cls-7"><path class="cls-5" d="M82.25,210.84a6.8,6.8,0,0,1-3.39-1.06l-17.4-10.39a16.9,16.9,0,0,1-7.4-13l-.58-80.81c0-2,.66-3.49,1.91-4.21s2.84-.54,4.52.46a13.73,13.73,0,0,1,6,10.55l.49,71a8.71,8.71,0,0,0,3.8,6.68l.52.3a2.31,2.31,0,0,0,2.31.32,2.38,2.38,0,0,0,.92-2.2l-.47-69.34c0-2.45.81-4.28,2.33-5.15s3.48-.67,5.54.56l16.69,9.92a16.92,16.92,0,0,1,7.43,13l.16,26.38c0,2-.67,3.48-1.92,4.19s-2.85.55-4.53-.46a13.69,13.69,0,0,1-6-10.55l-.11-16.56a8.66,8.66,0,0,0-3.81-6.69,2.32,2.32,0,0,0-2.32-.31,2.38,2.38,0,0,0-.92,2.2l.46,69.63c0,2.35-.79,4.12-2.26,5A3.91,3.91,0,0,1,82.25,210.84ZM54.48,105.59l.58,80.81A15.81,15.81,0,0,0,62,198.53l17.41,10.39c1.67,1,3.22,1.19,4.35.55s1.76-2.11,1.75-4.09L85,135.76a3.31,3.31,0,0,1,1.42-3.08,3.23,3.23,0,0,1,3.33.32,9.62,9.62,0,0,1,4.3,7.54l.11,16.56a12.59,12.59,0,0,0,5.53,9.7c1.36.82,2.61,1,3.52.45s1.43-1.7,1.42-3.32l-.16-26.38a15.82,15.82,0,0,0-6.94-12.17l-16.69-9.92c-1.74-1-3.35-1.23-4.53-.56s-1.85,2.21-1.83,4.28L75,188.53a3.3,3.3,0,0,1-1.42,3.07,3.26,3.26,0,0,1-3.33-.33l-.51-.3a9.66,9.66,0,0,1-4.29-7.53l-.49-71a12.66,12.66,0,0,0-5.53-9.71c-1.36-.8-2.6-1-3.51-.44s-1.42,1.71-1.41,3.33Z"/><path class="cls-5" d="M101.78,250.48a6.9,6.9,0,0,1-3.51-1.11L5.63,194a13.72,13.72,0,0,1-6-10.51c0-2,.66-3.47,1.9-4.18s2.82-.54,4.5.46L90.4,230.16a2.3,2.3,0,0,0,2.32.32,2.39,2.39,0,0,0,.91-2.19l-.29-45.46c0-2,.67-3.48,1.91-4.19s2.85-.55,4.53.46a13.7,13.7,0,0,1,6,10.55l.34,55.19c0,2.44-.81,4.25-2.33,5.12A4.11,4.11,0,0,1,101.78,250.48ZM.63,183.48a12.59,12.59,0,0,0,5.51,9.66l92.64,55.37c1.75,1,3.36,1.25,4.54.58s1.83-2.19,1.82-4.24l-.34-55.19a12.59,12.59,0,0,0-5.53-9.7c-1.36-.82-2.61-1-3.52-.45s-1.42,1.7-1.41,3.31l.29,45.47A2.9,2.9,0,0,1,89.88,231L5.52,180.63c-1.35-.81-2.6-1-3.49-.45s-1.41,1.69-1.4,3.3Z"/><path class="cls-5" d="M40.29,104a5.16,5.16,0,0,1-2.6-.81L4.33,83.34a13,13,0,0,1-5.61-10v-.54c0-2,.64-3.42,1.85-4.12a4.09,4.09,0,0,1,4.17.4L38.1,88.88a13,13,0,0,1,5.62,10v.55c0,2-.64,3.42-1.85,4.11A3.08,3.08,0,0,1,40.29,104ZM2.14,69.24a2.16,2.16,0,0,0-1.08.27C.19,70-.3,71.19-.29,72.76v.54a11.87,11.87,0,0,0,5.12,9.18L38.2,102.32a3.16,3.16,0,0,0,3.17.4c.87-.5,1.36-1.68,1.35-3.25v-.54a11.93,11.93,0,0,0-5.13-9.19L4.21,69.9A4.12,4.12,0,0,0,2.14,69.24Z"/><path class="cls-5" d="M40.53,157.51a5.64,5.64,0,0,1-2.83-.89l-31-18.5c-4.1-2.45-7.47-8.37-7.52-13.19L-1,102.77c0-2.47.81-4.31,2.34-5.19s3.48-.66,5.56.57l31.06,18.49a13.72,13.72,0,0,1,6,10.54c0,2-.67,3.49-1.91,4.2s-2.83.54-4.51-.45L14.45,117.2a2.31,2.31,0,0,0-2.3-.32,2.37,2.37,0,0,0-.91,2.21l0,2.86a8.69,8.69,0,0,0,3.8,6.67l23,13.73a13.74,13.74,0,0,1,6,10.54c0,2-.67,3.48-1.91,4.19A3.31,3.31,0,0,1,40.53,157.51ZM3.36,98.05a3,3,0,0,0-1.56.4c-1.2.69-1.86,2.22-1.84,4.32l.18,22.15a16.11,16.11,0,0,0,7,12.34l31,18.5c1.36.81,2.6,1,3.5.45s1.42-1.7,1.41-3.32a12.64,12.64,0,0,0-5.52-9.68l-23-13.74A9.65,9.65,0,0,1,10.26,122l0-2.86A3.3,3.3,0,0,1,11.65,116a3.22,3.22,0,0,1,3.31.32L38,130.07c1.35.8,2.6,1,3.5.44s1.42-1.7,1.41-3.32a12.63,12.63,0,0,0-5.53-9.69L6.34,99A6,6,0,0,0,3.36,98.05Z"/><path class="cls-5" d="M40.91,186.38a5.16,5.16,0,0,1-2.6-.81L5,165.69a13,13,0,0,1-5.6-10v-.54c0-1.95.64-3.41,1.84-4.1a4.08,4.08,0,0,1,4.16.41l33.32,19.87a13,13,0,0,1,5.61,10v.54c0,2-.64,3.41-1.84,4.09A3.08,3.08,0,0,1,40.91,186.38ZM2.81,151.63a2.13,2.13,0,0,0-1.07.27c-.87.5-1.36,1.67-1.34,3.22v.54a11.92,11.92,0,0,0,5.11,9.17l33.31,19.88a3.16,3.16,0,0,0,3.17.4,3.53,3.53,0,0,0,1.34-3.22v-.54a11.92,11.92,0,0,0-5.12-9.18L4.89,152.3A4.08,4.08,0,0,0,2.81,151.63Z"/><path class="cls-5" d="M56.47,107.67l.58,80.8A16.32,16.32,0,0,0,64.2,201l17.41,10.39c3.82,2.27,6.88.5,6.86-4L88,137.82c0-2.6,1.78-3.64,4-2.32h0a9.22,9.22,0,0,1,4,7.11l.11,16.56a13.15,13.15,0,0,0,5.77,10.13h0c3.17,1.89,5.72.41,5.7-3.3l-.16-26.38A16.37,16.37,0,0,0,100.3,127L83.61,117.1c-4-2.35-7.15-.49-7.12,4.16L77,190.6c0,2.6-1.77,3.64-4,2.31l-.51-.3a9.26,9.26,0,0,1-4-7.11l-.49-71a13.18,13.18,0,0,0-5.77-10.13h0C59,102.46,56.44,104,56.47,107.67Z"/><path class="cls-5" d="M2.62,185.56h0a13.15,13.15,0,0,0,5.75,10.08L101,251c4,2.36,7.13.53,7.11-4.09l-.34-55.2A13.14,13.14,0,0,0,102,181.6h0c-3.17-1.89-5.71-.41-5.69,3.29l.29,45.47c0,2.6-1.77,3.63-4,2.3L8.26,182.27C5.12,180.39,2.59,181.86,2.62,185.56Z"/><path class="cls-5" d="M45.71,101.54V101a12.44,12.44,0,0,0-5.37-9.62L7,71.54C4,69.8,1.67,71.27,1.7,74.83v.54A12.46,12.46,0,0,0,7.07,85l33.37,19.84C43.38,106.57,45.74,105.1,45.71,101.54Z"/><path class="cls-5" d="M2,104.84,2.14,127a16.59,16.59,0,0,0,7.27,12.77l31,18.5c3.16,1.88,5.69.4,5.67-3.3h0a13.15,13.15,0,0,0-5.77-10.11l-23-13.73a9.23,9.23,0,0,1-4.05-7.1l0-2.86c0-2.6,1.75-3.64,4-2.32l23.05,13.72c3.16,1.88,5.69.4,5.67-3.3h0a13.16,13.16,0,0,0-5.77-10.12L9.09,100.65C5.11,98.28,1.91,100.16,2,104.84Z"/><path class="cls-5" d="M46.32,184v-.54a12.46,12.46,0,0,0-5.36-9.6L7.64,153.94c-2.93-1.75-5.28-.29-5.25,3.26v.54a12.44,12.44,0,0,0,5.36,9.59l33.31,19.88C44,189,46.35,187.5,46.32,184Z"/><path class="cls-6" d="M96,142.64c-.13-.23-.27-.45-.42-.67a6.36,6.36,0,0,1,.07.86l.1,16.56a12.41,12.41,0,0,0,1.81,5.92,9.43,9.43,0,0,1-.25-2.07l-.11-16.56A8.4,8.4,0,0,0,96,142.64Z"/><path class="cls-6" d="M69.57,190.44a9.35,9.35,0,0,0,4,6.23l.51.31c2.22,1.32,4,.29,4-2.31l-.46-69.35c0-4.65,3.15-6.51,7.11-4.15l16.69,9.92a15.09,15.09,0,0,1,5.19,5.68,16.42,16.42,0,0,0-6.74-9.53l-16.69-9.92c-4-2.35-7.15-.49-7.12,4.16l.47,69.34c0,2.6-1.77,3.64-4,2.31l-.51-.3A7.86,7.86,0,0,1,69.57,190.44Z"/><path class="cls-6" d="M56,107.89l.58,80.8a14.88,14.88,0,0,0,2,6.88,12.06,12.06,0,0,1-.44-3l-.57-80.81c0-2.62,1.24-4.13,3.1-4.13a5.13,5.13,0,0,1,2.57.81,12,12,0,0,1,4,4.21,13.34,13.34,0,0,0-5.52-8.06,5.13,5.13,0,0,0-2.57-.81C57.25,103.75,56,105.26,56,107.89Z"/><path class="cls-6" d="M4,191.66a9.13,9.13,0,0,1-.26-2c0-3.69,2.49-5.16,5.64-3.29l84.37,50.4c2.22,1.32,4,.29,4-2.31L97.42,189c0-2.62,1.24-4.12,3.1-4.12a5.25,5.25,0,0,1,2.59.82,11.9,11.9,0,0,1,4,4.21,13.27,13.27,0,0,0-5.51-8.05A5.09,5.09,0,0,0,99,181c-1.85,0-3.11,1.5-3.1,4.11l.29,45.47c0,2.6-1.77,3.63-4,2.3L7.8,182.49c-3.15-1.88-5.68-.41-5.64,3.29A12.16,12.16,0,0,0,4,191.66Z"/><path class="cls-6" d="M1.23,75.05v.54A12.07,12.07,0,0,0,3,81.41a9.72,9.72,0,0,1-.24-2v-.55c0-3.56,2.32-5,5.26-3.29L41.42,95.45A10.76,10.76,0,0,1,45,99.24a12.48,12.48,0,0,0-5.14-7.64L6.49,71.76C3.56,70,1.2,71.49,1.23,75.05Z"/><path class="cls-6" d="M14.41,129a9.37,9.37,0,0,0,4,6.23l23.05,13.73a11.89,11.89,0,0,1,4,4.2,14.13,14.13,0,0,0-1.46-3.67,12.08,12.08,0,0,0-4-4.37L16.83,131.34A7.86,7.86,0,0,1,14.41,129Z"/><path class="cls-6" d="M1.48,105.06l.19,22.15a15.25,15.25,0,0,0,2,7,12.34,12.34,0,0,1-.46-3.12L3,108.9c0-4.68,3.16-6.55,7.14-4.18L41.24,123.2a11.92,11.92,0,0,1,3.94,4.17,13.54,13.54,0,0,0-1.44-3.64,12.1,12.1,0,0,0-4.06-4.37L8.62,100.87C4.64,98.5,1.44,100.38,1.48,105.06Z"/><path class="cls-6" d="M1.92,157.42V158a12,12,0,0,0,1.8,5.82,9.15,9.15,0,0,1-.24-2v-.54c0-3.55,2.32-5,5.25-3.26L42,177.88a10.82,10.82,0,0,1,3.57,3.77A12.46,12.46,0,0,0,40.49,174L7.17,154.16C4.24,152.41,1.89,153.87,1.92,157.42Z"/></g><path class="cls-2" d="M32.36,165.83a2.1,2.1,0,0,1-1.06-.28L1,148a2.12,2.12,0,0,1-1-1.82V111.73a2.09,2.09,0,0,1,3.15-1.81L33.4,127.4a2.11,2.11,0,0,1,1.05,1.82v34.51a2.1,2.1,0,0,1-2.09,2.1ZM2.14,111.65l-.14.08v34.45l30.31,17.63.14-.08V129.22a.09.09,0,0,0-.05-.08Z"/><path class="cls-2" d="M32.35,208.85a2.1,2.1,0,0,1-1.05-.29L1,191a2.1,2.1,0,0,1-1-1.81V154.75a2.1,2.1,0,0,1,3.14-1.82L33.4,170.42a2.11,2.11,0,0,1,1.05,1.82v34.51a2.1,2.1,0,0,1-2.1,2.1ZM2.14,154.67l-.14.08V189.2l30.31,17.63.14-.08V172.24a.11.11,0,0,0-.05-.09Z"/><path class="cls-2" d="M69.25,230.1a2.1,2.1,0,0,1-1-.29L37.94,212.26a2.09,2.09,0,0,1-1-1.81V176A2.1,2.1,0,0,1,40,174.18L70.3,191.67a2.11,2.11,0,0,1,1,1.81V228a2.08,2.08,0,0,1-1,1.81A2.1,2.1,0,0,1,69.25,230.1ZM39,175.91l-.15.09v34.45L69.2,228.08l.15-.08V193.48a.1.1,0,0,0,0-.08Z"/><path class="cls-2" d="M70.38,143.69a2.1,2.1,0,0,1-1.06-.28L39.07,125.86A2.11,2.11,0,0,1,38,124V89.59a2.1,2.1,0,0,1,3.15-1.81l30.26,17.49a2.1,2.1,0,0,1,1,1.81v34.51a2.1,2.1,0,0,1-2.09,2.1ZM40.17,89.51l-.15.08V124l30.31,17.64.14-.09V107.08a.12.12,0,0,0,0-.08Z"/><path class="cls-2" d="M107.29,165.83a2.09,2.09,0,0,1-1.05-.28L76,148a2.11,2.11,0,0,1-1-1.82V111.73a2.09,2.09,0,0,1,3.15-1.81l30.26,17.48a2.13,2.13,0,0,1,1,1.82v34.51a2.1,2.1,0,0,1-2.1,2.1ZM77.08,111.65l-.15.08v34.45l30.31,17.63.15-.08V129.22a.09.09,0,0,0,0-.08Z"/><path class="cls-2" d="M107.29,209.85a2.1,2.1,0,0,1-1.05-.29L76,192a2.09,2.09,0,0,1-1-1.81V155.75a2.1,2.1,0,0,1,3.15-1.82l30.26,17.49a2.11,2.11,0,0,1,1,1.82v34.51a2.1,2.1,0,0,1-2.1,2.1ZM77.08,155.67l-.15.08V190.2l30.31,17.63.15-.08V173.24a.11.11,0,0,0,0-.09Z"/><path class="cls-6" d="M123.36,139.37c.13-.23.27-.45.42-.67a6.36,6.36,0,0,0-.07.86l-.1,16.56A12.41,12.41,0,0,1,121.8,162a9.43,9.43,0,0,0,.25-2.07l.11-16.56A8.4,8.4,0,0,1,123.36,139.37Z"/><path class="cls-6" d="M149.74,187.17a9.35,9.35,0,0,1-4,6.23l-.51.31c-2.22,1.32-4,.29-4-2.31l.46-69.35c0-4.65-3.15-6.51-7.11-4.15l-16.69,9.92a15.09,15.09,0,0,0-5.19,5.68,16.42,16.42,0,0,1,6.74-9.53l16.69-9.92c4-2.35,7.15-.49,7.12,4.16l-.47,69.34c0,2.6,1.77,3.64,4,2.31l.51-.3A7.86,7.86,0,0,0,149.74,187.17Z"/><path class="cls-6" d="M163.31,104.62l-.58,80.8a14.88,14.88,0,0,1-2,6.88,12.06,12.06,0,0,0,.44-3l.57-80.81c0-2.62-1.24-4.13-3.1-4.13a5.13,5.13,0,0,0-2.57.81,12,12,0,0,0-4,4.21,13.34,13.34,0,0,1,5.52-8.06,5.13,5.13,0,0,1,2.57-.81C162.06,100.48,163.33,102,163.31,104.62Z"/><path class="cls-6" d="M215.34,188.39a9.13,9.13,0,0,0,.26-2c0-3.69-2.49-5.16-5.64-3.29l-84.37,50.4c-2.22,1.32-4,.29-4-2.31l.29-45.46c0-2.62-1.24-4.12-3.1-4.12a5.25,5.25,0,0,0-2.59.82,11.9,11.9,0,0,0-4,4.21,13.27,13.27,0,0,1,5.51-8,5.09,5.09,0,0,1,2.59-.82c1.85,0,3.11,1.5,3.1,4.11l-.29,45.47c0,2.6,1.77,3.63,4,2.3l84.36-50.39c3.15-1.88,5.68-.41,5.64,3.29A12.16,12.16,0,0,1,215.34,188.39Z"/><path class="cls-6" d="M218.08,71.78v.54a12.07,12.07,0,0,1-1.79,5.82,9.72,9.72,0,0,0,.24-2v-.55c0-3.56-2.32-5-5.26-3.29L177.89,92.18A10.76,10.76,0,0,0,174.3,96a12.48,12.48,0,0,1,5.14-7.64l33.38-19.84C215.75,66.75,218.11,68.22,218.08,71.78Z"/><path class="cls-6" d="M204.9,125.68a9.37,9.37,0,0,1-4,6.23l-23.05,13.73a11.89,11.89,0,0,0-4,4.2,14.13,14.13,0,0,1,1.46-3.67,12.08,12.08,0,0,1,4.05-4.37l23-13.73A7.86,7.86,0,0,0,204.9,125.68Z"/><path class="cls-6" d="M217.83,101.79l-.19,22.15a15.25,15.25,0,0,1-2,7,12.34,12.34,0,0,0,.46-3.12l.18-22.16c0-4.68-3.16-6.55-7.14-4.18l-31.06,18.48a11.92,11.92,0,0,0-3.94,4.17,13.54,13.54,0,0,1,1.44-3.64,12.1,12.1,0,0,1,4.06-4.37L210.69,97.6C214.67,95.23,217.87,97.11,217.83,101.79Z"/><path class="cls-6" d="M217.39,154.15v.54a12,12,0,0,1-1.8,5.82,9.15,9.15,0,0,0,.24-2V158c0-3.55-2.32-5-5.25-3.26l-33.31,19.88a10.82,10.82,0,0,0-3.57,3.77,12.46,12.46,0,0,1,5.12-7.62l33.32-19.87C215.07,149.14,217.42,150.6,217.39,154.15Z"/></svg>