<svg id="Calque_1" data-name="Calque 1" xmlns="http://www.w3.org/2000/svg" viewBox="0 0 274.31 409.32"><defs><style>.cls-1{fill:#c5cfff;}.cls-2{fill:#203dfc;}.cls-3{fill:#e0eaff;}.cls-4,.cls-7{fill:#223ffa;}.cls-5{fill:#ffb8ab;}.cls-6,.cls-8{fill:#fff;}.cls-6{opacity:0.7;}.cls-7{opacity:0.1;}</style></defs><path class="cls-1" d="M179.48,292.17C179,298.2,160.19,303,137.1,303s-41.88-4.84-42.39-10.87a13.67,13.67,0,0,0-4.38,3.05l-.16.2-.1.13-.14.19-.08.13-.12.19-.07.13-.09.19-.06.14c0,.06-.05.12-.08.19l0,.13c0,.07,0,.14-.06.2l0,.13a1.7,1.7,0,0,0,0,.22s0,.07,0,.11a2.73,2.73,0,0,0,0,.66s0,.08,0,.11a1.43,1.43,0,0,0,0,.22l0,.13.06.2c0,.05,0,.09,0,.14s0,.13.08.19l.06.14a1.74,1.74,0,0,0,.1.19.83.83,0,0,0,.07.13l.12.2.08.12.16.21.07.11c.07.08.14.17.22.25l0,.06.31.32h0a3.26,3.26,0,0,0,.33.31l.08.07.28.24.12.09.28.21.13.1.3.2.14.1.33.21.13.08.38.23.11.06.47.26,0,0c.55.29,1.15.58,1.79.86h0l.6.26.09,0,.59.23.11,0,.6.23.1,0,.65.23.08,0,.73.24h0c1.31.42,2.73.83,4.25,1.21h0l.89.22h0l.9.21h0l1,.21,1.57.32h0c1.61.32,3.3.61,5.06.87h0l1.74.24.1,0,1.76.22h.09c1.21.15,2.45.28,3.71.4h0l1.83.16.21,0,1.81.14h.22c.62.05,1.24.09,1.87.12h.13l1.92.1h.08l1.91.08h.28l1.86.05h.33l1.89,0h4.55l1.89,0h.33l1.86-.05h.28l1.91-.08h.08l1.92-.1h.13c.63,0,1.25-.07,1.87-.12h.22l1.82-.14.2,0,1.83-.16h0c1.27-.12,2.51-.25,3.72-.4h.09l1.75-.22.1,0c.59-.07,1.17-.16,1.74-.24h0c1.76-.26,3.45-.55,5.06-.87h0l1.57-.32,1-.21h0l.9-.21h.05l.89-.22h0c1.52-.38,2.94-.79,4.25-1.21h0l.74-.24.08,0,.64-.23.11,0,.6-.23.11,0,.58-.23.09,0,.61-.26h0c.64-.28,1.24-.57,1.79-.86l.05,0,.47-.26.11-.06.38-.23.14-.08.33-.21.13-.1a3.13,3.13,0,0,0,.3-.2l.13-.1.28-.21.12-.09.28-.24.08-.07a3.26,3.26,0,0,0,.33-.31h0c.1-.11.21-.21.3-.32l.05-.06c.08-.08.15-.17.22-.25l.08-.11.15-.21.08-.12.12-.2a.83.83,0,0,0,.07-.13,1.74,1.74,0,0,0,.1-.19l.06-.14c0-.06,0-.13.08-.19s0-.09,0-.14a1.17,1.17,0,0,0,.06-.2l0-.13a1.43,1.43,0,0,0,0-.22s0-.07,0-.11,0-.22,0-.33,0-.22,0-.33,0-.07,0-.11a1.7,1.7,0,0,0,0-.22.61.61,0,0,0,0-.13,1.94,1.94,0,0,0-.05-.2s0-.09-.05-.13,0-.13-.07-.19l-.06-.14-.1-.19-.07-.13-.12-.19-.08-.13-.14-.19-.09-.13c-.06-.06-.11-.13-.17-.2A13.56,13.56,0,0,0,179.48,292.17Z"/><path class="cls-2" d="M201.27,86.85c-25.25-53.62-64-85.32-64-85.32s-29.4,24-53.67,65.7A85.93,85.93,0,0,1,201.27,86.85Z"/><polygon class="cls-3" points="178.13 53.51 178.13 53.51 178.13 53.51 178.13 53.51"/><path class="cls-4" d="M137.28,311a155,155,0,0,1-30.94-2.86c-6.7-1.43-17.93-4.67-17.93-10.31a5,5,0,0,1,1.43-3.36,3.08,3.08,0,0,0,.13-3.88C65.59,258,51,209.59,51,181.6c0-56.76,23.27-103,42.79-131.73C115,18.71,136.42.71,136.64.53l.64-.53.64.53c.21.18,21.66,18.18,42.81,49.34,19.52,28.77,42.8,75,42.8,131.73,0,28-14.57,76.41-38.94,109a3.07,3.07,0,0,0,.13,3.88h0a5.09,5.09,0,0,1,1.43,3.36c0,5.64-11.24,8.88-17.94,10.31A154.89,154.89,0,0,1,137.28,311Zm0-308.38c-3.71,3.22-22.89,20.49-41.84,48.43C76.09,79.57,53,125.38,53,181.6c0,27.66,14.41,75.54,38.54,107.79a5.08,5.08,0,0,1-.24,6.41,3.12,3.12,0,0,0-.92,2c0,2.35,4.29,5.78,16.35,8.35A152.2,152.2,0,0,0,137.28,309a152.35,152.35,0,0,0,30.52-2.82c12-2.57,16.35-6,16.35-8.35a3.09,3.09,0,0,0-.93-2h0a5.09,5.09,0,0,1-.23-6.41c24.12-32.25,38.54-80.13,38.54-107.79,0-56.22-23.07-102-42.42-130.55C160.16,23.11,141,5.84,137.28,2.62Z"/><path class="cls-4" d="M137.28,311c-12.87,0-25-1.28-34.1-3.6-6.74-1.71-14.77-4.76-14.77-9.57s8-7.86,14.77-9.57c9.12-2.32,21.23-3.6,34.1-3.6s25,1.28,34.09,3.6c6.74,1.71,14.78,4.76,14.78,9.57s-8,7.86-14.78,9.57C162.25,309.72,150.14,311,137.28,311Zm0-24.34c-27.62,0-46.87,5.89-46.87,11.17S109.66,309,137.28,309s46.87-5.89,46.87-11.17S164.9,286.66,137.28,286.66Z"/><path class="cls-4" d="M137.28,304c-21,0-43.4-4.25-43.4-12.12h2c0,4.79,17,10.12,41.4,10.12s41.4-5.33,41.4-10.12h2C180.68,299.79,158.32,304,137.28,304Z"/><rect class="cls-4" x="99.76" y="264.14" width="3" height="25.44" transform="translate(-105.12 66.36) rotate(-24.34)"/><rect class="cls-4" x="117.77" y="258.13" width="3" height="28.18" transform="translate(-42.46 22.88) rotate(-9.31)"/><rect class="cls-4" x="161.94" y="275.82" width="25.44" height="3" transform="translate(-149.99 322.17) rotate(-65.66)"/><rect class="cls-4" x="142.22" y="270.84" width="28.87" height="3" transform="translate(-137 384.02) rotate(-80.91)"/><path class="cls-4" d="M187,388.44c-2.09,0-5.05-.31-6.3-2.37a5.55,5.55,0,0,1,.53-5.73,6.27,6.27,0,0,1,2.85-2.2c3-1.21,19.3-16.61,29.22-33,9.55-15.75,29.77-55.59,11.2-85.16a53.37,53.37,0,0,0-15.77-15.93l1.12-1.66a55.53,55.53,0,0,1,16.35,16.52c19.15,30.52-1.44,71.2-11.19,87.27S188.55,378.46,184.82,380a4.5,4.5,0,0,0-2,1.51,3.61,3.61,0,0,0-.45,3.54c1,1.59,4.69,1.43,5.91,1.37,15-.65,33.72-18.09,33.91-18.27,14.41-13.51,23.92-22.44,32.9-38.23A150,150,0,0,0,271,278.37c3.06-32.84-.42-37.45-2.05-37.9-1.07-.3-2.64.83-4.62,2.26-3.22,2.31-7.63,5.49-14.21,5.69H250a17.45,17.45,0,0,1-7-1c-3.78-1.4-8.59-4.08-15.53-13.31a91,91,0,0,1-11.08-19.3l1.85-.78A88.85,88.85,0,0,0,229,232.92c6.63,8.81,11.12,11.33,14.63,12.64a15.63,15.63,0,0,0,6.2.87h.23c6-.18,9.92-3,13.1-5.32,2.42-1.74,4.33-3.12,6.33-2.56,6.24,1.74,5.15,22.31,3.5,40a152,152,0,0,1-16.19,52.31c-9.13,16.06-18.73,25.07-33.27,38.71-.79.74-19.49,18.13-35.19,18.81C188,388.42,187.51,388.44,187,388.44Z"/><path class="cls-5" d="M252.49,323.35a115.34,115.34,0,0,1-12.26,27.49,111.42,111.42,0,0,0,15.15-20.79,150.14,150.14,0,0,0,16-51.65c1.28-13.68,2.68-36.86-2.28-38.24-1.21-.34-2.83.83-4.89,2.31-2.71,2-6.29,4.52-11.29,5.36,1.17,5.25,2.38,12.1,3.58,21A151.85,151.85,0,0,1,252.49,323.35Z"/><path class="cls-4" d="M87.31,388.44c-.54,0-1,0-1.41,0-15.7-.68-34.4-18.07-35.19-18.81C36.17,356,26.57,346.94,17.44,330.88A151.87,151.87,0,0,1,1.26,278.59c-3.15-33.76.21-39.14,3.49-40,2-.56,3.91.82,6.33,2.56,3.18,2.29,7.14,5.14,13.1,5.32h.23a15.63,15.63,0,0,0,6.2-.87c3.51-1.31,8-3.83,14.63-12.64A88.61,88.61,0,0,0,56.07,214l1.85.78a91.23,91.23,0,0,1-11.08,19.3C39.9,243.35,35.09,246,31.31,247.43a17.45,17.45,0,0,1-7,1h-.21c-6.58-.2-11-3.38-14.21-5.69-2-1.43-3.55-2.56-4.62-2.26-1.63.45-5.11,5.06-2,37.92A149.87,149.87,0,0,0,19.18,329.9c9,15.79,18.5,24.72,32.9,38.23.19.18,19,17.62,33.91,18.27,1.22.06,5,.22,5.91-1.37a3.61,3.61,0,0,0-.45-3.54,4.39,4.39,0,0,0-2-1.49c-3.76-1.54-20.38-17.61-30.19-33.79S29,289.46,48.11,258.94a55.53,55.53,0,0,1,16.35-16.52l1.12,1.66A53.37,53.37,0,0,0,49.81,260c-18.57,29.57,1.65,69.41,11.2,85.16,9.92,16.36,26.24,31.76,29.2,33a6.39,6.39,0,0,1,2.88,2.21,5.57,5.57,0,0,1,.52,5.73C92.36,388.13,89.4,388.44,87.31,388.44Z"/><path class="cls-5" d="M166.11,352.67c0,15.8-12.81,56.65-28.6,56.65s-28.61-40.85-28.61-56.65a28.61,28.61,0,0,1,57.21,0Z"/><path class="cls-4" d="M216.7,215.69a135.89,135.89,0,0,0-159.3,0l-1.17-1.62a137.88,137.88,0,0,1,161.64,0Z"/><path class="cls-4" d="M81.58,275.85l-1.21-1.58a93.27,93.27,0,0,1,113.82,0L193,275.85a91.31,91.31,0,0,0-111.39,0Z"/><path class="cls-1" d="M170.41,288.37c5,1.2,9.17,2.71,11.89,4.5a4.83,4.83,0,0,1,.94-3.29,164.09,164.09,0,0,0,9.51-14.29A92.11,92.11,0,0,0,180,267.21Z"/><path class="cls-1" d="M92.25,292.87c3-1.95,7.64-3.57,13.32-4.83l-9.72-21.49a92.45,92.45,0,0,0-14,8.74,159.66,159.66,0,0,0,9.51,14.29A4.82,4.82,0,0,1,92.25,292.87Z"/><path class="cls-1" d="M117.75,258.7l4.41,26.92c4.91-.42,10-.64,15.12-.64,5.57,0,11.2.26,16.54.77L158.09,259a90.87,90.87,0,0,0-40.34-.31Z"/><path class="cls-2" d="M88.87,197.43,84.47,154a3.13,3.13,0,0,1,1.93-3.2l13.67-5.57a1.13,1.13,0,0,0,.69-1L103.45,56l2,.06-2.69,88.23a3.12,3.12,0,0,1-1.94,2.79l-13.67,5.57a1.12,1.12,0,0,0-.69,1.15l4.4,43.45Z"/><circle class="cls-2" cx="90.09" cy="156.07" r="1.14"/><circle class="cls-2" cx="96.93" cy="142.85" r="1.14"/><path class="cls-2" d="M195.86,202.45l-2-.2,4.4-43.45a1.12,1.12,0,0,0-.69-1.15l-13.67-5.57a3.13,3.13,0,0,1-1.94-2.79l-2.69-88.24,2-.06L184,149.22a1.14,1.14,0,0,0,.7,1l13.67,5.57a3.12,3.12,0,0,1,1.92,3.2Z"/><circle class="cls-2" cx="194.64" cy="161.09" r="1.14"/><circle class="cls-2" cx="187.8" cy="147.87" r="1.14"/><path class="cls-3" d="M140.92,102.05a25.53,25.53,0,0,0,25.53,25.53c.8,0,1.58,0,2.36-.11a31.9,31.9,0,0,0-8.73-50.15h0A25.55,25.55,0,0,0,140.92,102.05Z"/><path class="cls-6" d="M173.92,86.66,141,100.27c0,.55-.05,1.1-.05,1.65a30.71,30.71,0,0,0,.67,6.34l35.55-14.69A36.62,36.62,0,0,0,173.92,86.66Z"/><path class="cls-6" d="M179.22,106a38.21,38.21,0,0,0-1.51-10.67L142,110.09a29.34,29.34,0,0,0,4.54,9.45l32.65-13.49Z"/><path class="cls-5" d="M159.85,77.55a31.9,31.9,0,0,1,8.73,50.15,25.37,25.37,0,0,0,4.88-.94,32.54,32.54,0,0,0,11.25-15.71,31.91,31.91,0,0,0,1.35-9,30.51,30.51,0,0,0-11.57-23.93,25.7,25.7,0,0,0-14.64-.57Z"/><path class="cls-2" d="M166.05,128.94l1.8-1.93a30.9,30.9,0,0,0-8.45-48.57l-2.34-1.2,2.54-.66a26.73,26.73,0,0,1,15.21.6l.16,0,.14.11a31.41,31.41,0,0,1,11.95,24.71,32.4,32.4,0,0,1-1.4,9.3c-2.53,8.25-8.35,13.7-11.59,16.21l-.15.11-.18,0a26.25,26.25,0,0,1-5.07,1ZM162.68,78a32.89,32.89,0,0,1,8.4,48.31c.65-.13,1.28-.28,1.91-.46a31.65,31.65,0,0,0,10.76-15.1,31,31,0,0,0,1.31-8.71A29.38,29.38,0,0,0,174,79,24.59,24.59,0,0,0,162.68,78Z"/><path class="cls-4" d="M155.51,133.6a31.55,31.55,0,0,1,0-63.09,31.22,31.22,0,0,1,19.6,6.83,1,1,0,0,1-1,1.73,24.53,24.53,0,1,0-7.93,47.74,24.73,24.73,0,0,0,6.94-1,1,1,0,0,1,1.18.51,1,1,0,0,1-.31,1.25A31.29,31.29,0,0,1,155.51,133.6Zm0-61.09a29.55,29.55,0,1,0,12.7,56.23c-.66,0-1.32.07-2,.07a26.53,26.53,0,0,1,0-53.06,26.9,26.9,0,0,1,3.11.18A29.29,29.29,0,0,0,155.51,72.51Z"/><path class="cls-7" d="M132.72,102.05a30.54,30.54,0,0,1,26.7-30.29,29.63,29.63,0,0,0-3.91-.25,30.55,30.55,0,0,0,0,61.09,31.41,31.41,0,0,0,3.9-.25A30.55,30.55,0,0,1,132.72,102.05Z"/><circle class="cls-2" cx="88.73" cy="225.37" r="1.14"/><circle class="cls-2" cx="93.28" cy="234.49" r="1.14"/><path class="cls-4" d="M106.47,260.8l-11-32.16-.13-.06-7.52,3.22a2.09,2.09,0,0,1-2.72-1L72.78,204.83l1.8-.86L86.9,229.91A.09.09,0,0,0,87,230l7.52-3.22A2.09,2.09,0,0,1,97.35,228l11,32.16Z"/><circle class="cls-2" cx="193.58" cy="229.47" r="1.14"/><circle class="cls-2" cx="189.02" cy="238.59" r="1.14"/><path class="cls-4" d="M175.83,264.9l-1.89-.65,11-32.16a2.09,2.09,0,0,1,2.81-1.25l7.51,3.22a.11.11,0,0,0,.13,0l12.31-26,1.81.86-12.31,25.94a2.09,2.09,0,0,1-2.73,1L187,232.68l-1.08-.26.95.32Z"/><path class="cls-7" d="M183.78,295.35a3.67,3.67,0,0,1-1.37-2.28,4.36,4.36,0,0,1,1.37-3.19c2.31-2.63,3.58-6.07,5.92-8.66,4.2-4.65,14-23.66,21.89-47.87,5.39-16.47,8.9-27.17,10.48-42.4,3.07-29.46-3.48-52.68-8.2-68.84a222.72,222.72,0,0,0-17.33-42.4l-19.6-17.78a225,225,0,0,1,21.43,67.48c11.31,76-20.45,136.37-33.74,158.64,2.8.43,5.12.95,6.84,1.37,6.41,1.59,8.67,3,9.57,3.65A19.87,19.87,0,0,1,183.78,295.35Z"/><ellipse class="cls-8" cx="137.73" cy="285.78" rx="16.18" ry="89.58"/><path class="cls-4" d="M137.73,376.36c-3.44,0-8.38-4.7-12.42-27.06-3.07-17-4.76-39.54-4.76-63.53s1.69-46.54,4.76-63.52c4-22.36,9-27.06,12.42-27.06s8.39,4.7,12.43,27.06c3.07,17,4.76,39.54,4.76,63.52s-1.69,46.55-4.76,63.53C146.12,371.66,141.17,376.36,137.73,376.36Zm0-179.17c-1.37,0-6.2,1.84-10.46,25.42-3,16.86-4.72,39.29-4.72,63.16s1.68,46.31,4.72,63.17c4.26,23.58,9.09,25.42,10.46,25.42s6.2-1.84,10.46-25.42c3.05-16.86,4.73-39.29,4.73-63.17s-1.68-46.3-4.73-63.16C143.93,199,139.11,197.19,137.73,197.19Z"/><path class="cls-7" d="M137.28,259.79c-5,0-9.83-3.58-14.1-10.32-.89,10.93-1.4,23.29-1.4,36.76,0,53.18,8,88.9,15.5,88.9s15.5-35.72,15.5-88.9c0-13.47-.52-25.83-1.41-36.76C147.1,256.21,142.29,259.79,137.28,259.79Z"/></svg>