<svg id="Calque_1" data-name="Calque 1" xmlns="http://www.w3.org/2000/svg" viewBox="0 0 330.89 339.75"><defs><style>.cls-1{fill:#9ab1ff;}.cls-2{fill:#fff;}.cls-3{fill:#ffb8ab;}.cls-4,.cls-5{fill:#223ffa;}.cls-5{opacity:0.1;}</style></defs><polygon class="cls-1" points="59.65 94.06 57.75 95.44 56.24 94.69 39.76 106.64 28.53 101.09 45.01 89.14 43.49 88.39 45.39 87.02 45.32 84.36 46.84 85.11 46.32 65.06 57.55 70.61 58.07 90.64 59.58 91.39 59.65 94.06"/><path class="cls-2" d="M46.84,85.11l-1.52-.75-1.52-.75.07,2.66L42,87.65l1.52.75,1.52.75,1.26-.92A1.51,1.51,0,0,0,46.89,87Zm14.26,7-1.52-.75-1.51-.75.07,2.66-1.9,1.38,1.51.75,1.53.75,1.26-.91A1.48,1.48,0,0,0,61.15,94Z"/><polygon class="cls-1" points="45.39 87.02 43.49 88.39 41.97 87.64 25.49 99.59 14.26 94.06 30.74 82.09 29.22 81.34 31.12 79.97 31.05 77.31 32.57 78.06 32.06 58.02 43.28 63.56 43.8 83.61 45.32 84.36 45.39 87.02"/><path class="cls-2" d="M46.84,85.11l-1.52-.75-1.52-.75.07,2.66L42,87.65l1.52.75,1.52.75,1.26-.92A1.51,1.51,0,0,0,46.89,87Zm-14.27-7-1.52-.75-1.52-.75.07,2.66L27.7,80.6l3,1.5L32,81.19a1.51,1.51,0,0,0,.62-1.26ZM29,56.52l.52,20-.51-20Z"/><path class="cls-1" d="M31.12,80l-1.9,1.38L27.7,80.6l-16.48,12L0,87,17.74,74.14a1.47,1.47,0,0,0,.61-1.25L17.79,51,29,56.52h0l.51,20,1.52.75Z"/><path class="cls-2" d="M32.57,78.06l-1.52-.75-1.52-.75.07,2.66L27.7,80.6l3,1.5L32,81.19a1.51,1.51,0,0,0,.62-1.26Z"/><path class="cls-3" d="M273.48,4.44A70.17,70.17,0,0,0,251.56,1,73.33,73.33,0,0,0,217,9.83a65.49,65.49,0,0,1,35.2-1.65,74.63,74.63,0,0,1,29.22,16C305.65,46.08,322,123,292.12,199.28,267.29,262.73,206.46,336.12,154.51,326a57.29,57.29,0,0,1-25.27-12.39c4.69,5.85,14.41,16.24,30,21.72,20.86,7.33,39.4,1.32,50.3-2.4,33.2-11.3,52.12-36.35,68.38-58.47a257.64,257.64,0,0,0,36.52-70.7c19.16-56.89,23.2-129.62-3.81-168.64C306.22,28.76,294.11,11.28,273.48,4.44Z"/><path class="cls-3" d="M247.1,54.93c-29-10-68.53,27.33-90.52,84.36-.53,1.38-1.06,2.77-1.57,4.18s-.93,2.58-1.38,3.89c-16.06,46.5-15.76,91.2-1.56,114.79a46,46,0,0,0,2.89,4.26,32.48,32.48,0,0,0,15.18,11.37c24.94,8.61,57.62-17.76,80.27-61.55a231.53,231.53,0,0,0,13.19-30.89c7.5-21.72,11.43-43,12-62a1.69,1.69,0,0,0,0-.23C276.73,88.44,266.7,61.7,247.1,54.93ZM233,174.77a174.81,174.81,0,0,1-15.62,33.74c-6.77,11.1-14.1,19.55-21,24.22,0,0,0,0,0,0-5.43,3.67-10.6,5-15.07,3.46-3.46-1.19-6.19-4-8.17-8.11a31.48,31.48,0,0,1-2.13-5.87c-4-15-1.59-39.94,7.51-66.28l.26-.75c.5-1.41,1-2.81,1.53-4.2C194,114.53,215.79,89.53,230.2,94.51a12.87,12.87,0,0,1,6.18,4.78c3.18,4.3,5.1,11,5.75,19.25C243.28,133.47,240.29,153.66,233,174.77Z"/><path class="cls-3" d="M217.35,172.67c-7.87,22.8-20.06,39.28-27.21,36.81s-6.58-23,1.3-45.76,20.06-39.29,27.21-36.82S225.23,149.86,217.35,172.67Z"/><path class="cls-4" d="M327.07,76.65c-7.81-38-26.72-64-53.27-73.15C221.9-14.42,155.9,38.28,122.29,122.37q-.83,2.05-1.62,4.14-1.74,4.53-3.34,9.18c-31.68,91.74-13,181.71,41.56,200.57A64.47,64.47,0,0,0,180,339.75c16,0,32.63-5.57,48.8-15.72l.09-.06h0l.13-.08A150.87,150.87,0,0,0,248,309.68l0,0,0,0c27.39-24,51.91-60.95,67.31-105.56C330.68,159.72,334.84,114.46,327.07,76.65ZM159.54,334.37A65.29,65.29,0,0,1,132.3,316h0l-.51-.57c-1.07-1.21-2.12-2.47-3.13-3.77C100.32,275.33,95,206.39,119.23,136.34q1.56-4.53,3.25-8.94c.53-1.39,1.06-2.77,1.62-4.14,22.73-57,60.39-99.51,98.24-114.93h0A80.11,80.11,0,0,1,252.57,2a62.65,62.65,0,0,1,20.58,3.4c25.85,8.93,44.3,34.37,52,71.66,7.7,37.47,3.56,82.35-11.64,126.37C282.15,294.12,213.1,352.86,159.54,334.37Z"/><path class="cls-4" d="M165.64,327.41a81.11,81.11,0,0,1-10.51-.69,1,1,0,1,1,.25-2,77.23,77.23,0,0,0,23.49-.49c16.8-3,36-15.73,56.93-37.86,33.25-35.09,49.27-70.51,55.87-88.51a249.41,249.41,0,0,0,13.24-54.63c1.34-10.7,3.84-30.62.49-55.74-2.95-22.18-5.75-43.14-22-59.89A69.72,69.72,0,0,0,259,11.5a1,1,0,0,1,.74-1.86,71.78,71.78,0,0,1,25.12,16.59c16.74,17.22,19.57,38.5,22.58,61,3.38,25.37.85,45.46-.5,56.25a251,251,0,0,1-13.34,55.07c-6.65,18.14-22.8,53.85-56.3,89.2-21.27,22.44-40.8,35.38-58,38.45A77.66,77.66,0,0,1,165.64,327.41Z"/><path class="cls-4" d="M205.32,163.36l-2,4-1.18-.58,0,0-4-2-6-3-2.45-1.21-1.8-.89-9.13-4.5-4-2-1.8-.89L155,143.47l-5.6-2.77-1.81-.89L122.48,127.4l-1.81-.89L59.28,96.19l-1.53-.75-1.51-.75L45,89.15l-1.52-.75L42,87.65,30.74,82.1l-3-1.5-8.52-4.21a1.62,1.62,0,0,1-.74-2.16L19,73.15a1.6,1.6,0,0,1,2.16-.73l8.39,4.14,1.52.75,1.52.75L43.8,83.61l1.52.75,1.52.75,11.23,5.54,1.51.75,1.52.75,61.19,30.22,1.81.89,25.1,12.39,1.8.89,5.58,2.75,17.9,8.84,1.8.89,4,2,9.23,4.56,1.79.88,2.42,1.2,6.35,3.14.39.19,3.18,1.56.41.21Z"/><path class="cls-5" d="M204.07,162.66,131.34,316.3l-2.94-4.16,71.66-151.38Z"/><path class="cls-4" d="M276.73,96.41c-3.38-26.71-14.09-44.47-30.15-50C215.37,35.61,173,75.13,149.2,135.65c-.55,1.37-1.08,2.76-1.6,4.16-.73,2-1.44,3.93-2.13,5.93-11,31.94-15.26,64.09-11.91,90.55,2,15.7,6.5,28.31,13.16,37.16a41.1,41.1,0,0,0,3.14,3.74,34.33,34.33,0,0,0,13.86,9.13,33.36,33.36,0,0,0,10.9,1.8c13.58,0,28.72-7.74,43.7-22.56,19-18.75,35.48-46.67,46.51-78.6S280.08,122.87,276.73,96.41Zm-1.08,26.69a1.69,1.69,0,0,1,0,.23c-1,19.86-5.28,41.46-12.7,63a246.52,246.52,0,0,1-12.53,29.92c-9.49,19-21,35.51-33.5,47.91-18.57,18.37-37.23,25.57-52.54,20.29a32.67,32.67,0,0,1-13.59-9.19,39.72,39.72,0,0,1-3.09-3.85c-6.1-8.52-10.26-20.5-12.14-35.35-3.32-26.16.88-58,11.81-89.64q1-2.88,2-5.7c.51-1.4,1-2.79,1.59-4.16,20.81-53.14,55.91-89.95,84.69-89.95a31.05,31.05,0,0,1,10.23,1.69c15.31,5.29,25.55,22.47,28.83,48.38a145.52,145.52,0,0,1,1.1,18.28C275.85,117.62,275.78,120.35,275.65,123.1Z"/><path class="cls-4" d="M242.14,118.86c0-.11,0-.22,0-.32-.63-16.46-5.45-27.06-13.6-29.87S209.92,91.29,199.2,104c-9.33,11.07-18,26.55-24.72,44.1-.53,1.38-1,2.78-1.55,4.19-.32.86-.62,1.72-.92,2.59-7,20.32-10.57,40.5-10,56.81.3,8.54,1.72,15.53,4.15,20.68h0a22.29,22.29,0,0,0,2.76,4.54,14.57,14.57,0,0,0,6.7,5,13.51,13.51,0,0,0,4.44.73c7.37,0,16-5.55,24.9-16.09a125.34,125.34,0,0,0,12.43-18c.83-1.45,1.66-2.94,2.47-4.46a196.83,196.83,0,0,0,12.29-28.38C239.16,155.35,242.71,135.17,242.14,118.86ZM230.25,175c-8.91,25.79-21.73,46.87-33.89,57.71,0,0,0,0,0,0-7.25,6.47-14.27,9.28-20.07,7.28a13.1,13.1,0,0,1-6.4-5.1,23.59,23.59,0,0,1-2.6-4.88c-1.89-4.72-3-10.91-3.27-18.39-.56-16.07,3-36,9.9-56.09.27-.79.55-1.57.83-2.35.5-1.41,1-2.81,1.55-4.19,6.67-17.42,15.23-32.75,24.45-43.71,8.47-10.06,16.59-15.37,23.33-15.37a11.63,11.63,0,0,1,3.82.62c3.63,1.26,6.47,4.29,8.5,8.73,2.58,5.6,3.88,13.43,3.88,22.75C240.26,136.93,237,155.6,230.25,175Z"/><path class="cls-4" d="M216.44,126.7h0A5.29,5.29,0,0,0,215,126c-6.9-2.39-17.5,10.23-25.52,29.59-.56,1.35-1.1,2.73-1.63,4.14-.46,1.21-.91,2.44-1.34,3.7-5.34,15.47-7.32,29.65-5.88,38.38a16,16,0,0,0,2.06,6,6.11,6.11,0,0,0,3.14,2.64,5.37,5.37,0,0,0,1.79.29,8,8,0,0,0,3.66-1h0c2.77-1.41,5.82-4.3,9-8.56,5.2-7,10.18-17,14-28.16C222,150.85,222.74,131.35,216.44,126.7Zm-4,45.64c-3.78,10.94-8.65,20.74-13.74,27.62-3.73,5.06-7.27,8.07-10,8.66a4,4,0,0,1-2.15-.08,5.12,5.12,0,0,1-2.76-2.93,21,21,0,0,1-1.51-7.18c-.51-8,1.3-20.22,6.19-34.39.41-1.18.82-2.33,1.25-3.46.53-1.43,1.07-2.81,1.62-4.15,7.43-18.05,16.52-28.77,21.91-28.77a3.4,3.4,0,0,1,.45,0,2.72,2.72,0,0,1,.71.16C220.16,129.85,220.78,148.21,212.44,172.34Z"/></svg>