<svg id="Calque_1" data-name="Calque 1" xmlns="http://www.w3.org/2000/svg" viewBox="0 0 431 456"><defs><style>.cls-1{fill:#f83756;}.cls-2{fill:red;}.cls-3{fill:#fff;}.cls-4,.cls-5,.cls-6,.cls-7{fill:#39005d;}.cls-4{opacity:0.2;}.cls-6{opacity:0.3;}.cls-7{opacity:0.4;}</style></defs><path class="cls-1" d="M427.31,231.48c-1.55-17.24-8.07-72.4-44.94-131.9-14.88-24-28.83-45.73-54.71-64.49-63-45.64-159.79-45.64-222.77,0C79,53.85,65.07,75.56,50.18,99.58,13.31,159.08,6.79,214.24,5.24,231.48c-1.9,21.06-3.72,41.33,2,67.41C22.66,370,80,410.82,92.19,419.07c72.55,49.24,175.62,49.24,248.17,0,12.15-8.25,69.53-49.1,85-120.18C431,272.81,429.21,252.54,427.31,231.48Z"/><path class="cls-2" d="M63,168.83c5.07-59.14,70.8-101,114.19-108a314.81,314.81,0,0,1,40.52-3.06c-1.58,0-3.16,0-4.77,0-21-.07-39.42,1.78-47.66,3.11-43.39,7-109.12,48.84-114.2,108C48.86,195.2,58.67,225,76.5,240.41,81,244.25,95,256.07,116,258.61a46.38,46.38,0,0,0,11.84,0c-20.91-2.56-35-14.36-39.4-18.19C70.58,225,60.77,195.2,63,168.83Z"/><path class="cls-2" d="M372.56,168.83c-5.08-59.39-71.16-101-114.2-108C250,59.5,232.49,57.8,213,57.74q-3.63,0-7.15,0a316.3,316.3,0,0,1,40.62,3.06c43,7,109.12,48.59,114.19,108,.58,6.75,3.41,47.23-25.37,71.58-13.31,11.26-28.19,14.71-36.83,15.93a229.63,229.63,0,0,1-23.5-2.58c-14.48-2.34-21.46-4.48-31.1-6.58-21.23-4.61-21.67-5-26.7-5a29,29,0,0,0-6,.51c5.31,1,16,3.63,51.84,11,21.44,4.43,28.21,5.66,35.61,5.1a45.45,45.45,0,0,0,9.08-.25c21-2.54,35-14.36,39.47-18.2C365,225,374.81,195.21,372.56,168.83Z"/><path class="cls-3" d="M78.05,240.2c4.5,3.88,18.75,15.85,40,18.43,8.66,1.05,14.48.06,38.54-4.92,53.25-11,51.64-11.7,58.52-11.7s5.28.69,58.53,11.7c24.06,5,29.88,6,38.54,4.92,21.22-2.58,35.47-14.55,40-18.43,18.05-15.57,28-45.76,25.69-72.48-5.14-60.13-72-102.25-115.62-109.33C253.76,57,236,55.3,216.24,55.24c-21.32-.07-39.92,1.8-48.26,3.15C124,65.5,57.49,107.84,52.35,167.72,50.06,194.42,60,224.63,78.05,240.2Z"/><path class="cls-4" d="M383.8,150.29c-15.5-59.56-79.31-95-121.61-101.77-9.94-1.58-27.81-3.09-45.95-3.15-17.94,0-31.36-.2-48.26,3.15-14.54,2.89-37.65,7.75-60.36,25.32a125,125,0,0,0-34.53,41.92,176.21,176.21,0,0,1,22.2-22.19A170.92,170.92,0,0,1,120,76.31a165.3,165.3,0,0,1,48-17.92c16.82-3.47,29.32-3.21,48.26-3.15,19.75.06,37.52,1.78,45.95,3.15,48.4,7.86,109.87,52,115.62,109.33a86.94,86.94,0,0,1,.35,12.37,3.21,3.21,0,0,1-.19.31,84.22,84.22,0,0,1-.69,9.13,100.79,100.79,0,0,1-3.34,15l-1.27,4.64c-3.68,10.43-9.92,21.86-20.55,31-4.5,3.88-18.75,15.85-40,18.43-8.66,1.05-14.48.06-38.54-4.91C220.36,242.7,222,242,215.08,242s-5.27.69-58.52,11.71c-24.06,5-29.88,6-38.54,4.91-21.22-2.58-35.47-14.55-40-18.43-15.24-13.14-24.66-36.7-25.86-59.79-1.39,26,8.43,54.63,25.86,69.66,4.5,3.88,18.75,15.85,40,18.42,8.66,1.05,14.48.06,38.54-4.91,53.25-11,51.64-11.71,58.52-11.71s5.28.7,58.53,11.71c24.06,5,29.88,6,38.54,4.91,18.91-2.29,33-12.93,40-18.42,6.13-4.83,18.4-14.69,26.75-30.74C394.13,190,386.14,159.29,383.8,150.29Z"/><path class="cls-5" d="M116.06,330.5c5.83,5.09,16.42,10.81,25.95,13.88l.42,1.06-7.41,14-1.16.31c-10.17-3.92-20.23-9.32-27.43-16.62v-1.06l8.68-11.55Zm1.17,35.16c9.74,6.67,22.45,11.23,39.18,14.62l.42.74-7.09,15.46-1.06.42c-15.67-3.6-31.56-10.48-41.62-17.79l-.1-1.06,9.21-12.18Zm10-59.62a157.16,157.16,0,0,1,29.34,12.71v1.06l-9.22,12.81-1.06.32a145.14,145.14,0,0,0-29.54-14l-.11-.85,9.53-12Z"/><path class="cls-5" d="M170.6,347.66V333.79l1-.64,14.51.32h40.67l14.82-.32.74.85c-3.7,33.57-19.69,51.36-49.13,61.53a8.48,8.48,0,0,1-2.23.53,3.46,3.46,0,0,1-2.43-1.17l-12-9.95c24.36-7.42,40.24-18.54,44.9-36.75H186l-14.62.32Zm47.55-22.24H193.69l-12.92.32-.75-.85V311.23l1-.63,12.81.31h23.94l14.61-.31.85.74v13.55l-.74.85Z"/><path class="cls-5" d="M276.39,341.31c10.38-4.88,22.88-11.44,34-19.49h.95l10.38,12.5-.11,1.06c-13.34,8.68-28.8,15.88-45.32,22v7.2c0,3,.1,4.56.95,5.62,1.27,1.48,3.5,1.8,7.94,1.8a306.34,306.34,0,0,0,36.22-2.33l.85.53.63,15.46-.63.74c-11.23.95-26.79,1.8-36.33,1.8-10.27,0-18.42-1-23-6.67-3-3.6-3.17-8.79-3.17-16l.31-49,.75-.75h14.93l.74.75Z"/><path class="cls-5" d="M133,198.14a31,31,0,1,1,31-31A31,31,0,0,1,133,198.14Zm0-55.36a24.38,24.38,0,1,0,24.37,24.37A24.4,24.4,0,0,0,133,142.78Z"/><circle class="cls-5" cx="133.03" cy="167.15" r="17.75"/><path class="cls-5" d="M296.28,198.14a31,31,0,1,1,31-31A31,31,0,0,1,296.28,198.14Zm0-55.36a24.38,24.38,0,1,0,24.38,24.37A24.39,24.39,0,0,0,296.28,142.78Z"/><circle class="cls-5" cx="296.28" cy="167.15" r="17.75"/><path class="cls-6" d="M296.28,198.2a31,31,0,0,1-31-29.67c0,.44,0,.88,0,1.32a31,31,0,1,0,62,0q0-.66,0-1.32A31,31,0,0,1,296.28,198.2Z"/><path class="cls-6" d="M133,198.2a31,31,0,0,1-31-29.67q0,.66,0,1.32a31,31,0,1,0,62,0c0-.44,0-.88,0-1.32A31,31,0,0,1,133,198.2Z"/><path class="cls-5" d="M309.53,222.81a3.23,3.23,0,0,0-3.81-2.16,2.86,2.86,0,0,0-2.43,3.39,3,3,0,0,1-.69,2.77c-1.05.89-3,.67-3.78.59-3.42-.39-5.85-2.78-7.31-4.21l-.32-.32c-10.17-9.87-27.15-15.3-34-16a91.18,91.18,0,0,0-20.27,0c-14.29,1.34-15.27,5-22.27,5s-8-3.62-22.28-5a91.18,91.18,0,0,0-20.27,0c-6.84.66-23.82,6.09-34,16l-.32.32c-1.46,1.43-3.89,3.82-7.31,4.21-.75.08-2.73.3-3.78-.59A3,3,0,0,1,126,224a2.86,2.86,0,0,0-2.43-3.39,3.23,3.23,0,0,0-3.81,2.16,8.13,8.13,0,0,0,2.5,8.1c2.17,1.84,5.2,2.55,9,2.12,5.78-.65,9.48-4.29,11.25-6l.3-.29c8.7-8.44,23.85-10.72,30-11.31,7-.68,13.56.57,18.08,1.29,14.57,2.33,15.12,5.51,23.78,5.51s9.2-3.18,23.77-5.51c4.52-.72,11-2,18.08-1.29,6.11.59,21.27,2.87,30,11.31l.3.29c1.77,1.75,5.47,5.39,11.25,6,3.81.43,6.84-.28,9-2.12A8.13,8.13,0,0,0,309.53,222.81Z"/><path class="cls-7" d="M309.53,225.46a3.23,3.23,0,0,0-3.81-2.16,2.86,2.86,0,0,0-2.43,3.39,3,3,0,0,1-.69,2.76c-1.05.9-3,.68-3.78.59-3.42-.38-5.85-2.78-7.31-4.21l-.32-.32c-10.17-9.86-27.15-15.3-34-16a92.48,92.48,0,0,0-20.27,0c-14.29,1.34-15.27,5-22.27,5s-8-3.63-22.28-5a92.48,92.48,0,0,0-20.27,0c-6.84.66-23.82,6.1-34,16l-.32.32c-1.46,1.43-3.89,3.83-7.31,4.21-.75.09-2.73.31-3.78-.59a3,3,0,0,1-.69-2.76,2.86,2.86,0,0,0-2.43-3.39,3.23,3.23,0,0,0-3.81,2.16,8.11,8.11,0,0,0,2.5,8.09c2.17,1.84,5.2,2.56,9,2.13,5.78-.66,9.48-4.29,11.25-6l.3-.29c8.7-8.44,23.85-10.72,30-11.31,7-.68,13.56.57,18.08,1.29,14.57,2.33,15.12,5.51,23.78,5.51s9.2-3.18,23.77-5.51c4.52-.72,11-2,18.08-1.29,6.11.59,21.27,2.87,30,11.31l.3.29c1.77,1.75,5.47,5.38,11.25,6,3.81.43,6.84-.29,9-2.13A8.11,8.11,0,0,0,309.53,225.46Z"/><path class="cls-5" d="M100.08,97.61c.11-4.73,34.36-14.38,63.52-.12,5.93,2.9,19.63,9.85,23.83,23.83.94,3.12,3.42,11.41-1.32,18.53-4.89,7.34-13.76,7.92-14.39,8-9.1.45-15.05-6.23-16.67-8.05-5.85-6.57-5-12.53-7.33-18.43C139.42,100.72,100,102.7,100.08,97.61Z"/><path class="cls-5" d="M329.23,97.61c-.11-4.73-34.36-14.38-63.52-.12-5.93,2.9-19.63,9.85-23.83,23.83-.94,3.12-3.42,11.41,1.32,18.53,4.89,7.34,13.76,7.92,14.39,8,9.1.45,15.05-6.23,16.67-8.05,5.85-6.57,5-12.53,7.33-18.43C289.89,100.72,329.36,102.7,329.23,97.61Z"/><path class="cls-5" d="M236.61,111.46c-1.85-2.11-5.43-2.29-8-1.32-3,1.14-4.34,3.82-5,5.26-3.26,6.6-1.56,15.32,2.84,21.29,3.65,4.95,9.08,7.92,9.94,7.1s-4.07-4.18-4.26-9.94c-.21-6.12,5.15-8.3,5.68-17C238,114.07,237.55,112.55,236.61,111.46Z"/><path class="cls-5" d="M192.7,111.46c1.85-2.11,5.43-2.29,8-1.32,3,1.14,4.34,3.82,5,5.26,3.26,6.6,1.56,15.32-2.84,21.29-3.65,4.95-9.08,7.92-9.94,7.1s4.07-4.18,4.26-9.94c.21-6.12-5.15-8.3-5.68-17C191.33,114.07,191.76,112.55,192.7,111.46Z"/><path class="cls-5" d="M244.29,162.86a17.71,17.71,0,0,0-4.33.54,17.92,17.92,0,0,0-7.38,4,10.6,10.6,0,0,1,4.38,5.93c.07.25,1.36,5.28-1.32,7.94-1.18,1.18-1.84.59-3.32,1.88-2.22,1.92-1,3.72-3.35,5.89a11.38,11.38,0,0,1-7.82,3.14h-13a11.38,11.38,0,0,1-7.82-3.14c-2.31-2.17-1.13-4-3.35-5.89-1.48-1.29-2.14-.7-3.32-1.88-2.68-2.66-1.39-7.69-1.32-7.94a10.6,10.6,0,0,1,4.38-5.93,17.92,17.92,0,0,0-7.38-4,17.57,17.57,0,1,0,1.46,33.6,67.45,67.45,0,0,1,23.85,19.54A67.28,67.28,0,0,1,238.5,197a17.56,17.56,0,1,0,5.79-34.14Z"/><path class="cls-5" d="M215.75,231.36c-14.33-.35-27.62,16.26-31.23,31.23-1,4.06-3.75,15.51,2.84,25.55,8.91,13.6,27.29,12.88,29.81,12.78,2.28-.09,19.5-1,27-12.78C256.13,269.24,236.9,231.87,215.75,231.36Z"/><path class="cls-5" d="M145.37,206c-.32-1.95-33.78-6.84-52.52,11.36-8.84,8.58-11.3,19.29-23.62,23.09-4.12,1.28-9.59,1.86-14.56,6.62-1.66,1.59-5.59,5.36-5.3,10.59.38,6.79,7.56,10.4,8,10.59,7.22,3.51,15.25-.38,17.2-1.32,16.75-8.1,11.87-27.83,26.84-43.9C118.38,204.78,145.67,207.76,145.37,206Z"/><path class="cls-5" d="M285,206c.32-1.95,33.79-6.84,52.53,11.36,8.84,8.58,11.29,19.29,23.61,23.09,4.12,1.28,9.59,1.86,14.56,6.62,1.66,1.59,5.59,5.36,5.3,10.59-.38,6.79-7.55,10.4-7.94,10.59-7.22,3.51-15.25-.38-17.21-1.32C339.08,258.83,344,239.1,329,223,312,204.78,284.69,207.76,285,206Z"/><path class="cls-5" d="M329.67,188.19c-2.11,4.3,11.44,20.74,28.35,20.81,12.87.06,20.84-9.86,21.27-10.4,1.22-1.55,9.62-12.17,4.86-20.32-3.66-6.25-13.16-7.85-19.56-5.59-6.83,2.41-6.21,7.84-13.66,12C340.71,190.47,331.28,184.89,329.67,188.19Z"/><path class="cls-5" d="M98.37,193.63c2.11,4.3-11.45,20.74-28.36,20.82-1.56,0-14.5-.21-21.27-10.41-4.41-6.66-6.33-17.78-.66-23.12,4.38-4.11,11.31-2.94,12.12-2.79,7.87,1.44,8.73,7.77,16.9,12C87.86,195.77,96.72,190.26,98.37,193.63Z"/></svg>