{
    "asset": {
        "generator": "COLLADA2GLTF",
        "version": "2.0"
    },
    "scenes": [
        {
            "nodes": [
                0
            ]
        }
    ],
    "scene": 0,
    "nodes": [
        {
            "children": [
                1
            ],
            "matrix": [
                1.0,
                0.0,
                0.0,
                0.0,
                0.0,
                0.0,
                -1.0,
                0.0,
                0.0,
                1.0,
                0.0,
                0.0,
                0.0,
                0.0,
                0.0,
                1.0
            ],
            "name": "Z_UP"
        },
        {
            "mesh": 0,
            "children": [
                3,
                2
            ],
            "name": "SketchUp"
        },
        {
            "mesh": 1,
            "matrix": [
                0.732336699962616,
                0.0,
                0.0,
                0.0,
                0.0,
                0.732336699962616,
                0.0,
                0.0,
                0.0,
                0.0,
                1.0,
                0.0,
                -2.7905712127685549,
                -0.9892881512641908,
                0.5492749810218811,
                1.0
            ],
            "name": "image_0"
        },
        {
            "matrix": [
                0.992623507976532,
                0.12123770266771317,
                -0.0,
                0.0,
                -0.07375380396842957,
                0.6038526296615601,
                0.793676495552063,
                0.0,
                0.09622350335121156,
                -0.787821888923645,
                0.6083400249481201,
                0.0,
                4.098398685455322,
                -10.99515438079834,
                9.666792869567873,
                1.0
            ],
            "camera": 0,
            "name": "skp_camera_Last_Saved_SketchUp_View"
        }
    ],
    "cameras": [
        {
            "perspective": {
                "yfov": 0.6108646988868713,
                "zfar": 25.399999618530278,
                "znear": 0.02539999969303608
            },
            "type": "perspective",
            "name": "skp_camera_Last_Saved_SketchUp_View"
        }
    ],
    "meshes": [
        {
            "primitives": [
                {
                    "attributes": {
                        "NORMAL": 1,
                        "POSITION": 2
                    },
                    "indices": 0,
                    "mode": 4,
                    "material": 0
                }
            ],
            "name": "ID3"
        },
        {
            "primitives": [
                {
                    "attributes": {
                        "POSITION": 4
                    },
                    "indices": 3,
                    "mode": 4,
                    "material": 1
                }
            ],
            "name": "ID12"
        }
    ],
    "accessors": [
        {
            "bufferView": 0,
            "byteOffset": 0,
            "componentType": 5123,
            "count": 276,
            "max": [
                95
            ],
            "min": [
                0
            ],
            "type": "SCALAR"
        },
        {
            "bufferView": 1,
            "byteOffset": 0,
            "componentType": 5126,
            "count": 96,
            "max": [
                0.9942371249198914,
                0.9942371249198914,
                1.0
            ],
            "min": [
                -0.9942371249198914,
                -0.9942371249198914,
                -1.0
            ],
            "type": "VEC3"
        },
        {
            "bufferView": 1,
            "byteOffset": 1152,
            "componentType": 5126,
            "count": 96,
            "max": [
                5.950331211090088,
                7.790714263916016,
                0.5492749810218811
            ],
            "min": [
                -2.983137607574463,
                -1.1427537202835084,
                0.0
            ],
            "type": "VEC3"
        },
        {
            "bufferView": 0,
            "byteOffset": 552,
            "componentType": 5123,
            "count": 12,
            "max": [
                3
            ],
            "min": [
                0
            ],
            "type": "SCALAR"
        },
        {
            "bufferView": 1,
            "byteOffset": 2304,
            "componentType": 5126,
            "count": 4,
            "max": [
                11.684000015258788,
                11.684000015258788,
                0.0
            ],
            "min": [
                0.0,
                0.0,
                0.0
            ],
            "type": "VEC3"
        }
    ],
    "materials": [
        {
            "pbrMetallicRoughness": {
                "baseColorFactor": [
                    1.0,
                    1.0,
                    1.0,
                    1.0
                ],
                "metallicFactor": 0.0
            },
            "name": "ID4"
        },
        {
            "pbrMetallicRoughness": {
                "baseColorFactor": [
                    1.0,
                    1.0,
                    1.0,
                    1.0
                ],
                "metallicFactor": 0.0
            },
            "name": "ID4"
        }
    ],
    "bufferViews": [
        {
            "buffer": 0,
            "byteOffset": 2352,
            "byteLength": 576,
            "target": 34963
        },
        {
            "buffer": 0,
            "byteOffset": 0,
            "byteLength": 2352,
            "byteStride": 12,
            "target": 34962
        }
    ],
    "buffers": [
        {
            "byteLength": 2928,
            "uri": "data:application/octet-stream;base64,"
        }
    ]
}
